<svg xmlns="http://www.w3.org/2000/svg" xmlns:xlink="http://www.w3.org/1999/xlink" viewBox="0 0 278.28 203.02"><defs><style>.cls-1{fill:none;}.cls-2{fill:#e6ebf0;}.cls-3{clip-path:url(#clip-path);}.cls-4{clip-path:url(#clip-path-2);}.cls-5{fill:#c6d0db;}.cls-6{fill:#aab6c2;}.cls-7,.cls-8,.cls-9{fill:#fff;}.cls-7{opacity:0.31;}.cls-8{opacity:0.6;}.cls-10{opacity:0.22;fill:url(#Безымянный_градиент_3);}.cls-11{fill:#ffbf5b;}.cls-12{fill:#ff822e;}.cls-13{fill:#191e3f;opacity:0.15;}</style><clipPath id="clip-path" transform="translate(10.93)"><path class="cls-1" d="M124.09,2.94c30.48,8.78,81.65,35.89,79.35,98.16S146.81,131.26,106,187.52C75.57,229.47-51.79,172.11,23.41,48.88,53.35-.19,97.65-4.67,124.09,2.94Z"/></clipPath><clipPath id="clip-path-2" transform="translate(10.93)"><rect class="cls-1" x="125.2" y="23.01" width="104.3" height="134.51"/></clipPath><linearGradient id="Безымянный_градиент_3" x1="1692.95" y1="107.25" x2="1692.95" y2="29.59" gradientTransform="matrix(-1, 0, 0, 1, 1794.73, 0)" gradientUnits="userSpaceOnUse"><stop offset="0" stop-color="#fff" stop-opacity="0"/><stop offset="1" stop-color="#fff"/></linearGradient></defs><g id="Слой_2" data-name="Слой 2"><g id="Layer_1" data-name="Layer 1"><rect x="18.57" y="201.16" width="189.8" height="1.44"/><path class="cls-2" d="M124.09,2.94c30.48,8.78,81.65,35.89,79.35,98.16S146.81,131.26,106,187.52C75.57,229.47-51.79,172.11,23.41,48.88,53.35-.19,97.65-4.67,124.09,2.94Z" transform="translate(10.93)"/><path class="cls-2" d="M151.39,162.89c-27,8.22-30.61,20.38-30.42,31.15.21,12.21,48.05,6.28,68.09-26.08S165.64,158.54,151.39,162.89Z" transform="translate(10.93)"/><g class="cls-3"><rect class="cls-2" x="125.18" y="24.5" width="104.21" height="133.6" transform="translate(365.5 182.6) rotate(180)"/><g class="cls-4"><path class="cls-5" d="M166.51,128.15c.3-1.61,1.8-2.06,1.42-3.94-.22-1.06-.83-1.57-.13-2.68a4.55,4.55,0,0,1,1.51-1.38,2.23,2.23,0,0,1-.79-2.56.37.37,0,0,1,.62-.16,9.8,9.8,0,0,1,1.38,1.77,12.13,12.13,0,0,1,.21-1.23.75.75,0,0,1,.67-.65c.66,0,.67.59.54,1.18,1.22-.83,2.41-1.7,3.64-2.51.46-.31,1-.61,1.48-.91a1.53,1.53,0,0,1-.51-.79c-.17-.69.35-1.28,1-.9a3.93,3.93,0,0,1,1,.87,19.7,19.7,0,0,1,2.43-1,1.8,1.8,0,0,1-.58-.62.7.7,0,0,1,.54-1,1.9,1.9,0,0,1,1.43.63,3.11,3.11,0,0,1,.49.54c3-.57,6-.1,8.13,2.52l.35.43a2.7,2.7,0,0,1,1-1.45.28.28,0,0,1,.27-.06.4.4,0,0,1,.46.2.41.41,0,0,1,.12.35,6.11,6.11,0,0,1-.63,1.83,2.39,2.39,0,0,0,.62,0,4.2,4.2,0,0,1,1.58,0,3.62,3.62,0,0,1,1.87,1.54,4,4,0,0,1,.35.68c1.06,2.69-1.2,5.11-3.29,6.47a.3.3,0,0,1-.31,0c-2.87,1.72-6,4.15-9.36,4.61-.64.09-1.31-.08-1.92,0a10.79,10.79,0,0,0-2.1.7c-.18.16-.31.63-.46.84a4.9,4.9,0,0,1-2.55,2c-3.3,1.22-9.93.46-10.64-3.63A4.7,4.7,0,0,1,166.51,128.15Z" transform="translate(10.93)"/><path class="cls-6" d="M166.49,129.86c.71,4.09,7.34,4.85,10.64,3.63a4.9,4.9,0,0,0,2.55-2c.15-.21.28-.68.46-.84a10.79,10.79,0,0,1,2.1-.7c.61-.08,1.28.09,1.92,0,3.35-.46,6.49-2.89,9.36-4.61a.3.3,0,0,0,.31,0c2.09-1.36,4.35-3.78,3.29-6.47a4,4,0,0,0-.35-.68,6.89,6.89,0,0,1-8.66,4.51c-.21-.06-.5.11-.47.35.24,2-1.56,3-3.26,3.09a9.88,9.88,0,0,1-3.56-.82c-.23-.09-.45.13-.47.35a3.27,3.27,0,0,1-1.69,2.81c-.37.2-.9.19-1.25.41-.58.33-.49.65-.8,1.17-1.88,3.17-7.06.61-9.64-.45a.34.34,0,0,0-.36.1A.88.88,0,0,0,166.49,129.86Z" transform="translate(10.93)"/><path class="cls-5" d="M191.85,121.63a.59.59,0,0,1,.11-.08,1.52,1.52,0,0,0,0-.21c-.09-.47.63-.67.72-.2a4.19,4.19,0,0,1-.75,3.39.38.38,0,0,1-.68-.09A2.89,2.89,0,0,1,191.85,121.63Z" transform="translate(10.93)"/><path class="cls-5" d="M182.58,125.11a.27.27,0,0,1,.3,0,7.39,7.39,0,0,0,.41-1.2c.11-.47.83-.27.72.19a8.13,8.13,0,0,1-1.62,3.26.37.37,0,0,1-.62-.16A2,2,0,0,1,182.58,125.11Z" transform="translate(10.93)"/><path class="cls-5" d="M175.41,128.87c.78.89,1.72,2.42.48,3.39a.38.38,0,0,1-.62-.17,5.51,5.51,0,0,1-.11-2.14.27.27,0,0,1,.07-.13c-.12-.16-.24-.3-.35-.43C174.57,129,175.09,128.51,175.41,128.87Z" transform="translate(10.93)"/><path class="cls-6" d="M185.9,116c1.18-.81,1.47,2.54,1.44,3.13.24.37-.26.86-.54.5a5.43,5.43,0,0,1-1-2C185.67,117.15,185.42,116.29,185.9,116Z" transform="translate(10.93)"/><path class="cls-6" d="M179.75,120.68s0,0,0,0a7.74,7.74,0,0,1-1.19-3.66.37.37,0,0,1,.27-.36c.84-.27,1.22.75,1.43,1.39a6.34,6.34,0,0,1,.16,3.29c-.1.47-.82.27-.72-.2C179.71,121,179.73,120.83,179.75,120.68Z" transform="translate(10.93)"/><path class="cls-5" d="M178.06,123.22a.39.39,0,0,1,.64.31.35.35,0,0,1,.05.18,2.36,2.36,0,0,1-.9,1.79.37.37,0,0,1-.58-.07C176.79,124.55,177.41,123.77,178.06,123.22Z" transform="translate(10.93)"/><path class="cls-6" d="M169.49,124.06c0-.72.65-1,1.23-.72a6.61,6.61,0,0,1,1.53.9,10.72,10.72,0,0,1,1.07.54c.29.18.19.74-.19.7h0a.37.37,0,0,1-.48,0h0C171.39,125.43,169.57,125.49,169.49,124.06Z" transform="translate(10.93)"/><path class="cls-5" d="M213.47,116.15c.64-1.4,2.31-3.47,4-3.37a2.54,2.54,0,0,1,.54.09,5.94,5.94,0,0,1,1.83.76,6.21,6.21,0,0,0-.2-.61c-.18-.45.54-.64.72-.2a7.28,7.28,0,0,1,.41,1.43l.1.07a2.71,2.71,0,0,1,.48-1.51.65.65,0,0,1,1,0c.3.41.09.94-.08,1.35s-.29.68-.46,1a3.88,3.88,0,0,1,.44.61c.38.65.45,1.29.74,1.81.29-.29.58-.59.86-.89a.38.38,0,0,1,.63.36,5,5,0,0,1-.63,1.32,1.79,1.79,0,0,0,.24.12c.76.29,1.19.27,1.75.95a7.72,7.72,0,0,1,1.44,3.08,5.53,5.53,0,0,1,0,2.83,3.08,3.08,0,0,1-1.55,1.89,4.47,4.47,0,0,1-1,.26,4,4,0,0,0-2.23.7,1.91,1.91,0,0,1-.43.42c-3.87,1.29-4.14-5.86-6.88-7.18a.31.31,0,0,1-.18-.36C213.67,119.76,212.58,118.13,213.47,116.15Z" transform="translate(10.93)"/><path class="cls-6" d="M215,121.13a.31.31,0,0,0,.18.36c2.74,1.32,3,8.47,6.88,7.18a1.91,1.91,0,0,0,.43-.42,4,4,0,0,1,2.23-.7,4.47,4.47,0,0,0,1-.26,3.08,3.08,0,0,0,1.55-1.89,5.53,5.53,0,0,0,0-2.83,11.87,11.87,0,0,1-.67,1.87c-.78,1.3-2.35,1.45-3.68,1.25s-3-.57-2.72-2.18a3,3,0,0,0,.12-1.34c-.26-1.07-1.58-1.42-2.28-2.15a5.35,5.35,0,0,1,0-7.13v0a2.54,2.54,0,0,0-.54-.09c-1.68-.1-3.35,2-4,3.37C212.58,118.13,213.67,119.76,215,121.13Z" transform="translate(10.93)"/><path class="cls-5" d="M222.24,124.68a.27.27,0,0,1,.29-.18.41.41,0,0,1,.55.33,5.44,5.44,0,0,1-.14,2,.38.38,0,0,1-.68.09A2.48,2.48,0,0,1,222.24,124.68Z" transform="translate(10.93)"/><path class="cls-5" d="M220.43,123.89a.3.3,0,0,1,.37,0,.37.37,0,0,1,.51.5A3.2,3.2,0,0,1,220,125.7a.37.37,0,0,1-.54-.42A2.52,2.52,0,0,1,220.43,123.89Z" transform="translate(10.93)"/><path class="cls-5" d="M215.55,117.26a4.2,4.2,0,0,1,1.26-.24,7.27,7.27,0,0,1-1.24-1,.38.38,0,0,1,.26-.64,2.22,2.22,0,0,1,2.1,1.3.4.4,0,0,1-.34.56.19.19,0,0,1-.1,0,.37.37,0,0,1-.07.36,1.64,1.64,0,0,1-1.19.76.93.93,0,0,1-.94-.7A.38.38,0,0,1,215.55,117.26Z" transform="translate(10.93)"/><path class="cls-6" d="M223.28,121.14a1.27,1.27,0,0,1,.88.08,1.43,1.43,0,0,1,.91.35.84.84,0,0,1,.11,1c-.6,1-1.63-.41-2.06-.84A.38.38,0,0,1,223.28,121.14Z" transform="translate(10.93)"/><path class="cls-6" d="M220.41,116a.37.37,0,0,1,.69.19,7.81,7.81,0,0,1,0,2.16c-.05.37-.49.33-.65.08a.28.28,0,0,1-.15-.15A2.22,2.22,0,0,1,220.41,116Z" transform="translate(10.93)"/><path class="cls-5" d="M220.5,120.14c.05-.13.09-.25.13-.38.15-.45.87-.25.72.2l-.13.37C221.07,120.79,220.35,120.59,220.5,120.14Z" transform="translate(10.93)"/><path class="cls-5" d="M160.27,88.15a1.45,1.45,0,0,1-.55-.37c-.88-1,.2-1.85,1-2.4l3-2.1c.88-1.08,1.76-2.09,2.54-3a9,9,0,0,1-1.13-5.6,4.54,4.54,0,0,1-.53-3.92,1,1,0,0,1,1.91.26A13.32,13.32,0,0,1,168,69,4.22,4.22,0,0,1,167,67.1a.37.37,0,0,1,.26-.45,1.28,1.28,0,0,1,1.27.56l.1.12a2.75,2.75,0,0,1,.22.26c.1.13.2.26.31.38a23.29,23.29,0,0,1,8.24-4.51l.4-.13a3.45,3.45,0,0,1-.38-2.58.37.37,0,0,1,.62-.17,3.77,3.77,0,0,1,1,1.64,8.15,8.15,0,0,1,.77-1.9,1,1,0,0,1,.38-.37,9.35,9.35,0,0,1,.73-1,.38.38,0,0,1,.58.07,2.74,2.74,0,0,1,.57,1.77c0,.17.05.34.07.51a19.8,19.8,0,0,0,3.68-3.13,15.73,15.73,0,0,1,1.62-1.44c-.77-.53.11-2.29.36-2.88.13-.27.51-.2.65,0a3.74,3.74,0,0,1,.6,1.77,12.88,12.88,0,0,1,2.31-1.1,17.8,17.8,0,0,1,11.22-.16.81.81,0,0,1,.22-.77c.35-.34.71-.05.9.28s.39.7.58,1.06c.44.17.89.35,1.32.54a27.91,27.91,0,0,0,4.51,1.57,6.5,6.5,0,0,1-.29-1c-.07-.37-.22-.95.18-1.19s.87.11,1.17.34a4,4,0,0,1,1.32,2.32,29.37,29.37,0,0,0,3.09.27,25.88,25.88,0,0,1,3.28.35,2,2,0,0,1,.52-2.48c1-.55,2,.66,2.61,1.28a11.86,11.86,0,0,1,1.85,2.59,24.16,24.16,0,0,1,6.15,3.5c.41.32.77.6,1.14.87a7.71,7.71,0,0,1,3.6-2.32,1,1,0,0,1,.71,1.77,8.57,8.57,0,0,1-2,2,6.71,6.71,0,0,0,4.68.2c7.13-1.76,11.71.32,14.84,4.61a3.34,3.34,0,0,1,.18-.65c.1-.27.52-.4.67-.09a3.75,3.75,0,0,1,.34,1.08,4.48,4.48,0,0,1,.75-.76l.08-.06.11-.09a.33.33,0,0,1,.38,0,1.78,1.78,0,0,1,1,1.49,5.67,5.67,0,0,1-.57,4.67c.16.41.31.84.46,1.27a4.78,4.78,0,0,1,2.48-1,.3.3,0,0,1,.34.23.34.34,0,0,1,0,.4,3.39,3.39,0,0,1-2.43,1.56l0,0c.09.29.19.58.27.88a.22.22,0,0,0,.1,0c3.68,1.67,5.19,3.72,4.59,7.84-.33,2.24-.52,4.76-1.54,6.75a17,17,0,0,1,3.55,4.58l.13-.1a.84.84,0,0,1,.93-.6,1,1,0,0,1,1,1.53,5.87,5.87,0,0,1-.6,3L267,102c.35,0,.45.42.26.64a3.71,3.71,0,0,1-2.77,1.32,12.11,12.11,0,0,1-1.53,4.22,15.21,15.21,0,0,1-6,5.76c-4.27,2.26-8.87,1.48-13.44.64a10.51,10.51,0,0,1-8-7,5.57,5.57,0,0,1-7.86-2.45,8.46,8.46,0,0,1-8.4-2.76c-1.66-1.87-1.79-3.6-2.57-5.86s-.14-1.51-2.26-1.77c-1.1-.15-2.19-.11-3.28-.31-2.8-.48-4.77-1.73-7.3-2.8-1.46-.6-3.54-2-5.29-.74-.5.37-.95,1.79-1.34,2.34a11.55,11.55,0,0,1-4.47,3.61c-2.77,1.27-6.11.43-8.45,2.38-3.5,2.91-5.89,6.53-10.93,6.8a7.83,7.83,0,0,1-6.34-2.27,19.73,19.73,0,0,1-2.12-2.59c-2.22-3.17-6.59-3-6.32-7.78A12.28,12.28,0,0,1,160.27,88.15Z" transform="translate(10.93)"/><path class="cls-6" d="M171.3,105.9a7.64,7.64,0,0,1-4.3-2.19,4.36,4.36,0,0,1,1.09-1.73c1.23-1.23,3-1.46,4.59-2,5-1.73,5.2-6.32,5-10.87a1,1,0,0,1,1.22-1,16.62,16.62,0,0,0,7.47-.22,3.47,3.47,0,0,0,.43-.35c.72-.72.31-1.49.37-2.39v0a.15.15,0,0,1,0-.08v0a.72.72,0,0,1,.35-.64c.58-.5,1.69-.29,1.6.66a.25.25,0,0,0,0,.12c.06.62.5.89,1.07,1a3.83,3.83,0,0,0,1.51-1.13,2.25,2.25,0,0,0,.72-1.47,7.47,7.47,0,0,1,.11-1.16.34.34,0,0,1,.22-.22.38.38,0,0,1,.7-.18,2.18,2.18,0,0,1,.28,1.86c.14-.13.29-.26.42-.4.88-.9,1.52-2.14,2.63-2.8,2.33-1.42,4.79-1.58,6.71-3.91a1,1,0,0,1,1.36,0,46.13,46.13,0,0,0,4.44,3.87A2.79,2.79,0,0,0,212,79.38a1,1,0,0,1,1.73.79.79.79,0,0,1-.29.76c-1.52,1.27,1.23,2.43,2.14,2.69a.67.67,0,0,1,.39.21,7.42,7.42,0,0,0,6.67-2.32,1,1,0,0,1,1.38,0c2.63,2.24,2.49,5.33,4.34,7.86,1.44,1.15,6.67-.37,6.07.72a4.35,4.35,0,0,1-1.91,1.75,12.87,12.87,0,0,1,2,.72c2.8,1.4,3.91,3.74,7.7,1.81a6,6,0,0,0,1.28-1.79c.53-1.13,2.22-.13,1.69,1A8,8,0,0,1,244,95.48c-.27,5.19-.14,11,5.25,13.64,4.51,2.21,9.4,1,13.76-.94a15.21,15.21,0,0,1-6,5.76c-3.17,1.67-6.51,1.68-9.9,1.23a4.74,4.74,0,0,1,.34.72c.13.33-.23.53-.5.42a.35.35,0,0,1-.38,0,3.78,3.78,0,0,1-1.68-1.53l-1.32-.24a9.85,9.85,0,0,1-4.33-1.91.74.74,0,0,1-.82.53.64.64,0,0,1-.25-.11.37.37,0,0,1-.36-.36c0-.46,0-.92,0-1.38a11.77,11.77,0,0,1-2.26-3.81,5.57,5.57,0,0,1-7.86-2.45,8.87,8.87,0,0,1-2.65.18,2.52,2.52,0,0,1-.16.75.39.39,0,0,1-.41.25.31.31,0,0,1-.47,0,3.51,3.51,0,0,1-.66-1.27,8.72,8.72,0,0,1-4.05-2.63c-1.66-1.87-1.79-3.6-2.57-5.86s-.14-1.51-2.26-1.77c-1.1-.15-2.19-.11-3.28-.31a15.93,15.93,0,0,1-3.78-1.19,5.08,5.08,0,0,1-1.31.56.37.37,0,0,1-.47-.36.77.77,0,0,1,.38-.68l.18-.08-1-.49c-.05.13-.11.25-.17.37a.38.38,0,0,1-.68-.09,2.33,2.33,0,0,1-.16-.73l-.25-.11c-1.46-.6-3.54-2-5.29-.74-.5.37-.95,1.79-1.34,2.34a11.71,11.71,0,0,1-3.9,3.31,11.1,11.1,0,0,1-1.32,2,.37.37,0,0,1-.62-.17,3.22,3.22,0,0,1,.05-1.12,27.87,27.87,0,0,1-3.15.49,1.94,1.94,0,0,1-.59,1.59.37.37,0,0,1-.62-.17,3.46,3.46,0,0,1,0-1.2,6.15,6.15,0,0,0-2.72,1.22c-3.46,2.88-5.84,6.45-10.76,6.79a6.6,6.6,0,0,1-2.44,1c-.32.06-.68-.36-.36-.62A5.9,5.9,0,0,1,171.3,105.9Z" transform="translate(10.93)"/><path class="cls-6" d="M243.28,79.21a8.31,8.31,0,0,1,2.31-3.7,1,1,0,0,1,1.62.46.88.88,0,0,1,.13.79,6.15,6.15,0,0,1-2.63,3.55A1,1,0,0,1,243.28,79.21Z" transform="translate(10.93)"/><path class="cls-6" d="M223.15,71.62a1,1,0,0,1,1.9-.36,7.85,7.85,0,0,1,.36,3.12c-.07.87-1.35,1.44-1.81.49A5,5,0,0,1,223.15,71.62Z" transform="translate(10.93)"/><path class="cls-6" d="M250.06,89.09a4.55,4.55,0,0,1,3.82-2.49c1.22-.1,1.23,1.74.07,1.92a.84.84,0,0,1-.16.5,3.52,3.52,0,0,1-2.89,1.53A1,1,0,0,1,250.06,89.09Z" transform="translate(10.93)"/><path class="cls-5" d="M199.06,78.6a.31.31,0,0,1,.2-.15v0c-.15-.45.57-.65.72-.19a3.31,3.31,0,0,1-.17,3.07.1.1,0,0,1,0,0,1.75,1.75,0,0,1-.57.46.38.38,0,0,1-.55-.22A5,5,0,0,1,199.06,78.6Z" transform="translate(10.93)"/><path class="cls-5" d="M207.39,78.33a.38.38,0,0,1,.49.52,2.87,2.87,0,0,1-1.63,1.37c-.29.1-.51-.2-.46-.46A1.84,1.84,0,0,1,207.39,78.33Z" transform="translate(10.93)"/><path class="cls-5" d="M211.8,82.63a9.33,9.33,0,0,1,2.41-2.28c.41-.27.78.38.38.64a8.67,8.67,0,0,0-1,.75l.13,0h.05c.22,0,.45.06.42.34a1.21,1.21,0,0,1,0,.19.38.38,0,0,1,.29.11s0-.07,0-.1a.37.37,0,0,1,.73-.1,2.93,2.93,0,0,1-.85,3.61.38.38,0,0,1-.55-.23,8.35,8.35,0,0,1-.4-2.52,1.88,1.88,0,0,1-1.42.17A.37.37,0,0,1,211.8,82.63Z" transform="translate(10.93)"/><path class="cls-5" d="M231.75,92a18.47,18.47,0,0,1,3.09-1,.38.38,0,0,1,.3.67.38.38,0,0,1,0,.66,3.6,3.6,0,0,1-3.42.36A.38.38,0,0,1,231.75,92Z" transform="translate(10.93)"/><path class="cls-5" d="M228.88,91.15a7.19,7.19,0,0,1,1.38-2,.36.36,0,0,1,.61.15c.29-.36.92,0,.63.38a8.2,8.2,0,0,1-2.11,2C229.05,91.87,228.74,91.46,228.88,91.15Z" transform="translate(10.93)"/><path class="cls-5" d="M242.46,101.37A10.37,10.37,0,0,1,244.38,98c.31-.36.84.17.53.53-.12.14-.23.29-.34.43a.36.36,0,0,1,.27.35,3.1,3.1,0,0,1-1.93,2.54C242.65,101.94,242.37,101.62,242.46,101.37Z" transform="translate(10.93)"/><path class="cls-5" d="M249.9,108.21a.38.38,0,0,1,.72,0q.13.45.3.9a.32.32,0,0,1,.39,0,.38.38,0,0,1,.65.24,8.42,8.42,0,0,1,0,1.21,4,4,0,0,1,0,.77c0,.31-.44.32-.63.17l-.19-.18-.13,0a.9.9,0,0,1-.57-.75A2.8,2.8,0,0,1,249.9,108.21Z" transform="translate(10.93)"/><path class="cls-5" d="M183,88c.06-.28.39-.48.6-.21.67.86,1.37,2.09.41,3a.39.39,0,0,1-.63-.17,10.94,10.94,0,0,1-.58-2.25A.37.37,0,0,1,183,88Z" transform="translate(10.93)"/><path class="cls-5" d="M177.06,93.23a.3.3,0,0,1,.29-.14,1.48,1.48,0,0,1,1.23.7,1.09,1.09,0,0,1-.17,1.27.38.38,0,0,1-.53,0,6.8,6.8,0,0,1-1-1.32A.35.35,0,0,1,177.06,93.23Z" transform="translate(10.93)"/><path class="cls-5" d="M173.15,98.72a.33.33,0,0,1,.35-.16c.13-.61.24-1.22.31-1.83s.79-.48.74,0a17.09,17.09,0,0,1-.62,3.17,1.91,1.91,0,0,1-1.06,1.34.38.38,0,0,1-.47-.36A4.9,4.9,0,0,1,173.15,98.72Z" transform="translate(10.93)"/><path class="cls-6" d="M210.28,67.11c.08-.54.37-2.18,1.09-2.28s.9,1.16,1,1.61a4.55,4.55,0,0,1-.68,3l0,0a2.11,2.11,0,0,1,0,.25.37.37,0,0,1-.69.18A3.77,3.77,0,0,1,210.28,67.11Z" transform="translate(10.93)"/><path class="cls-6" d="M202.83,64.15a.38.38,0,0,1,.47-.36,4.12,4.12,0,0,1,3,2.59l.11.12a.31.31,0,0,1,0,.32.38.38,0,0,1-.59.24A2.9,2.9,0,0,1,202.83,64.15Z" transform="translate(10.93)"/><path class="cls-6" d="M193.25,71.42a.37.37,0,0,1,.64,0,3.67,3.67,0,0,1,.63,3.26.28.28,0,0,1-.05.11,1.69,1.69,0,0,1-.65,1.16c-.2.16-.47,0-.54-.22C192.76,74.31,192.4,72.78,193.25,71.42Z" transform="translate(10.93)"/><path class="cls-6" d="M182.9,64.58a7.78,7.78,0,0,1,2.57.38,2,2,0,0,1,1.21,1.17.89.89,0,0,1,.33.81c-.23,1.59-3.08-.08-3.72-.42a1.88,1.88,0,0,1-1.08-1.16C182.12,64.83,182.4,64.59,182.9,64.58Z" transform="translate(10.93)"/><path class="cls-6" d="M174.89,74.09a6.23,6.23,0,0,1,3.41-.77A.79.79,0,0,1,179,74.4a.58.58,0,0,1-.25.42,3.64,3.64,0,0,1-3.65.63A.75.75,0,0,1,174.89,74.09Z" transform="translate(10.93)"/><path class="cls-6" d="M171.62,84.11c.71-.42,1.2.32,1.41.88a5.74,5.74,0,0,1,.35,1.88.74.74,0,0,1-1.29.48.53.53,0,0,1-.25-.17,2.76,2.76,0,0,1-.69-1.46C171.07,85.18,171.08,84.42,171.62,84.11Z" transform="translate(10.93)"/><path class="cls-5" d="M166.49,91a2.38,2.38,0,0,1,1.94-.82.77.77,0,0,1,.74.75.59.59,0,0,1,0,.22l0,0a.77.77,0,0,1-.52.92,3.7,3.7,0,0,1-1.81.12C166.22,92.19,166.17,91.42,166.49,91Z" transform="translate(10.93)"/><path class="cls-6" d="M188.31,126.06a.87.87,0,0,0,.47-.13A29.3,29.3,0,0,0,201.63,134c1.32,11.59.54,31.6-1,43.09a1,1,0,0,0,.94,1.23,22.47,22.47,0,0,0,5.62-.52.87.87,0,0,0,.61-1.25c.08-12.61-.16-32.93-1.51-45-.26-2.35-.5-4.79-.62-7.24a19.22,19.22,0,0,0,12.75-5.14,24.61,24.61,0,0,1-12.81,3.2,34.56,34.56,0,0,1,1.32-11c2.09-6.62,7.08-11.76,11.78-16.63.88-.91-4.93,2.33-6.61,4.29,0-2.37,0-4.74.15-7.1.08-1.26-2,9.25-2,9.36a34.72,34.72,0,0,0-3.94,6.33,25.07,25.07,0,0,0-1.46,4c-.59-7.88-5.64-27.15-5.56-25.91.56,8.25,2.65,16.09,2.29,23.36-.33,6.44-1.16,12.66-.6,19.13.1,1.23.14,1.64.27,2.86a39.91,39.91,0,0,1-5.74-2.62,6.33,6.33,0,0,1-2.13-5.62c.17-1.22-2,2.21-1.55,3.46a27.76,27.76,0,0,1-5.3-6.46c-.63-1.08-.2,3.24.62,4.28a54.3,54.3,0,0,1-12.74-1.73C173.25,122,183.43,126.07,188.31,126.06Z" transform="translate(10.93)"/><path class="cls-6" d="M79.15,165.4a3.84,3.84,0,0,0,2.61.19l.08,0a13.47,13.47,0,0,1,1.8,1,5.19,5.19,0,0,0-2,.4c-.65.28-1.68,1-1.14,1.68.69.83,3.41-.21,4.52-1a16,16,0,0,1,2.15,2.21,5.31,5.31,0,0,0-1.94.16c-.68.2-1.79.83-1.34,1.53s3,.32,4.29-.31a25.43,25.43,0,0,1,1.46,2.47,5.19,5.19,0,0,0-1.84-.26c-.71,0-1.93.4-1.65,1.19s2.85,1,4.28.66c.4.85.74,1.6,1.09,2.41a5.45,5.45,0,0,0-2-.65c-.71-.07-2,.11-1.82.93.21,1.06,3.12,1.46,4.5,1.25.19.26.72,0,.67-.33l-.09-.21a2.79,2.79,0,0,0,1-1.24.77.77,0,0,0,0,.15c0,1,2.62,1.85,4.06,1.93a.38.38,0,0,0,.58-.15,6.82,6.82,0,0,0,.71-.59,5.93,5.93,0,0,0,.7.59.38.38,0,0,0,.58.15c1.44-.08,4-.89,4.06-1.93,0-.83-1.25-.81-1.93-.63a5.15,5.15,0,0,0-1.72.82l.27-1.32a7.62,7.62,0,0,0,3.4-1.09,6.19,6.19,0,0,0,.16,1.45,2.9,2.9,0,0,0,1.23,1.86l-.09.21c0,.32.48.59.68.33,1.37.21,4.28-.19,4.49-1.25.16-.82-1.11-1-1.81-.93a5.5,5.5,0,0,0-2,.65c.35-.81.69-1.56,1.09-2.41,1.43.32,4,.28,4.28-.66s-.94-1.15-1.65-1.19a5.19,5.19,0,0,0-1.84.26,25.43,25.43,0,0,1,1.46-2.47c1.33.63,3.76,1.15,4.3.31s-.66-1.33-1.34-1.53a5.36,5.36,0,0,0-2-.16,16,16,0,0,1,2.15-2.21c1.11.83,3.84,1.87,4.53,1,.53-.64-.49-1.4-1.15-1.68a5.19,5.19,0,0,0-2-.4,14.11,14.11,0,0,1,1.8-1l.09,0a3.81,3.81,0,0,0,2.6-.19,2.14,2.14,0,0,0,.88-1.87.35.35,0,0,0-.21-.29,3.82,3.82,0,0,0-2.27,0,2.91,2.91,0,0,0-1.58,1.7h0c-.42.2-.83.41-1.22.64a4.6,4.6,0,0,0,.2-1.4c0-.47-.08-1.86-.9-1.66-.61.14-1.07,1.47-1.23,2a2.87,2.87,0,0,0,.21,2.26,15.69,15.69,0,0,0-2,1.92,4.5,4.5,0,0,0,0-1.27c-.06-.47-.3-1.84-1.09-1.55-.59.22-.89,1.6-1,2.14a2.85,2.85,0,0,0,.6,2.37.34.34,0,0,0,0,.28,19.74,19.74,0,0,0-1.21,2l-.06.11a4.5,4.5,0,0,0-.3-1.38c-.17-.45-.71-1.73-1.42-1.26-.52.35-.49,1.75-.46,2.3a2.85,2.85,0,0,0,1.12,2.17.37.37,0,0,0,0,.21c-.27.54-.52,1.08-.76,1.63a4.11,4.11,0,0,0-.44-1c-.2-.36-.76-1.27-1.31-1.18-.18-.61-1.29-.58-1.91-.42a5.32,5.32,0,0,0-1.67.78q.34-1.58.72-3.15c1.39,0,4.2-.85,4.24-1.93,0-.83-1.25-.82-1.94-.64a5.41,5.41,0,0,0-1.9,1c.23-.86.46-1.71.71-2.56,1.47.1,3.94-.33,4.13-1.31.15-.82-1.11-1-1.82-.91a5,5,0,0,0-1.78.53A26.78,26.78,0,0,1,104.9,163c1.41.41,3.9.56,4.3-.35.34-.76-.86-1.22-1.56-1.31a5.32,5.32,0,0,0-2,.14,17.1,17.1,0,0,1,1.78-2.52c1.23.66,4.08,1.27,4.64.34.42-.71-.71-1.31-1.39-1.48a5.1,5.1,0,0,0-2-.09,11.85,11.85,0,0,1,1.63-1.24l.08,0a3.83,3.83,0,0,0,2.55-.58,2.13,2.13,0,0,0,.58-2,.34.34,0,0,0-.25-.25,3.7,3.7,0,0,0-2.24.38,2.9,2.9,0,0,0-1.3,1.92h0c-.39.26-.76.54-1.12.83a4.51,4.51,0,0,0,0-1.42c-.08-.46-.37-1.83-1.15-1.51-.58.24-.83,1.63-.9,2.17a2.87,2.87,0,0,0,.55,2.2,16.42,16.42,0,0,0-1.67,2.21,5,5,0,0,0-.19-1.26c-.14-.46-.59-1.78-1.32-1.36-.55.31-.63,1.71-.64,2.26a2.86,2.86,0,0,0,1,2.25.34.34,0,0,0,0,.28c-.33.69-.62,1.41-.89,2.14l0,.13a4.78,4.78,0,0,0-.5-1.33c-.24-.41-1-1.59-1.6-1-.47.42-.22,1.81-.1,2.34a2.85,2.85,0,0,0,1.44,2,.38.38,0,0,0,0,.23c-.18.57-.35,1.14-.5,1.72a5,5,0,0,0-.6-1c-.3-.37-1.21-1.43-1.73-.77-.4.49,0,1.82.25,2.33a2.87,2.87,0,0,0,1.5,1.65c-.23,1-.46,2-.67,3a5,5,0,0,0-.7-1.25l-.14-.16a1,1,0,0,0-.15-.62.55.55,0,0,0-.72-.13.56.56,0,0,0-.73.13,1.06,1.06,0,0,0-.15.62,1.53,1.53,0,0,0-.13.16,4.73,4.73,0,0,0-.71,1.25c-.21-1-.43-2-.67-3a2.89,2.89,0,0,0,1.51-1.65c.19-.51.64-1.84.25-2.33-.53-.66-1.44.4-1.74.77a4.55,4.55,0,0,0-.59,1c-.16-.58-.33-1.15-.5-1.72a.37.37,0,0,0,0-.23,2.87,2.87,0,0,0,1.45-2c.12-.53.36-1.92-.1-2.34-.63-.57-1.36.61-1.6,1a4.81,4.81,0,0,0-.51,1.33.65.65,0,0,0,0-.13,22.4,22.4,0,0,0-.89-2.14.34.34,0,0,0,0-.28,2.82,2.82,0,0,0,1-2.25c0-.55-.08-2-.63-2.26-.74-.42-1.19.9-1.33,1.36a5,5,0,0,0-.19,1.26,15.63,15.63,0,0,0-1.67-2.21,2.83,2.83,0,0,0,.56-2.2c-.08-.54-.33-1.93-.91-2.17-.78-.32-1.07,1-1.15,1.51a4.83,4.83,0,0,0,0,1.42,13.53,13.53,0,0,0-1.12-.83h0A2.93,2.93,0,0,0,87.25,154a3.73,3.73,0,0,0-2.25-.38.34.34,0,0,0-.25.25,2.13,2.13,0,0,0,.59,2,3.82,3.82,0,0,0,2.54.58l.08,0a11.85,11.85,0,0,1,1.63,1.24,5,5,0,0,0-2,.09c-.69.17-1.82.77-1.39,1.48.55.93,3.4.32,4.63-.34a16.38,16.38,0,0,1,1.78,2.52,5.27,5.27,0,0,0-1.94-.14c-.71.09-1.9.55-1.57,1.31.41.91,2.89.76,4.3.35a26.78,26.78,0,0,1,1.06,2.66,5,5,0,0,0-1.78-.53c-.7-.08-2,.09-1.82.91.19,1,2.67,1.41,4.13,1.31.25.85.49,1.7.71,2.56a5.33,5.33,0,0,0-1.9-1c-.68-.18-2-.19-1.93.64,0,1.08,2.84,1.92,4.23,1.93q.38,1.58.72,3.15a5.22,5.22,0,0,0-1.67-.78c-.65-.17-1.83-.19-1.93.52a3.05,3.05,0,0,0-.9,1.08,4.48,4.48,0,0,0-.43,1c-.25-.55-.5-1.09-.76-1.63a.5.5,0,0,0,0-.21,2.82,2.82,0,0,0,1.12-2.17c0-.55.06-1.95-.46-2.3-.7-.47-1.25.81-1.42,1.26a4.48,4.48,0,0,0-.29,1.38L90,172.7a21.7,21.7,0,0,0-1.2-2,.39.39,0,0,0-.05-.28,2.85,2.85,0,0,0,.6-2.37c-.09-.54-.38-1.92-1-2.14-.79-.29-1,1.08-1.1,1.55a4.91,4.91,0,0,0,0,1.27,15.69,15.69,0,0,0-2-1.92,2.87,2.87,0,0,0,.21-2.26c-.16-.53-.62-1.86-1.23-2-.82-.2-.89,1.19-.9,1.66a4.61,4.61,0,0,0,.21,1.4c-.4-.23-.81-.44-1.23-.64h0a2.87,2.87,0,0,0-1.57-1.7,3.85,3.85,0,0,0-2.28,0,.37.37,0,0,0-.21.29A2.16,2.16,0,0,0,79.15,165.4Zm20,9.93-.09-.08.09-.1.09.1Zm-5.27,1.87a3.81,3.81,0,0,0,.13-.45,6.48,6.48,0,0,0,.16-1.21,8.28,8.28,0,0,0,3,.85q.15.66.27,1.32a5.1,5.1,0,0,0-1.71-.82C95.16,176.73,94.16,176.7,93.88,177.2Z" transform="translate(10.93)"/><path class="cls-5" d="M164.18,48.08a81.82,81.82,0,0,0-7.07-8.18c-2.26-2.3-4.83-5.1-8.58-5.94-7.32-1.63-14.38,5.21-18.35,9.13a47.9,47.9,0,0,0-10.59,15.6,40.72,40.72,0,0,0-3,18.92c1.13,13.1,9.84,28.14,27.38,31.41a21.87,21.87,0,0,0,4,0,70.48,70.48,0,0,0,15.13-6.2c6.4-3.75,10.42-8.56,12-15.44C178,73.75,173,59.83,164.18,48.08Z" transform="translate(10.93)"/><path class="cls-6" d="M145.47,99c-6.28-2.27-12.58-5-16.8-9.42s-6.2-9.81-7.37-15.2c-1.1-5.07-2-10.51-1.71-15.71a40.72,40.72,0,0,0-3,18.92c1.13,13.1,9.84,28.14,27.38,31.41a21.87,21.87,0,0,0,4,0,70.48,70.48,0,0,0,15.13-6.2A61,61,0,0,1,145.47,99Z" transform="translate(10.93)"/><path class="cls-5" d="M114.68,69.2a.56.56,0,0,0-.79.43c.06,1.84-.1,4,1.41,5.57,1.23,1.27,3.09,1.47,5,1.71a.57.57,0,0,0,.59-.25.42.42,0,0,0,.18-.19C122.66,73,117.87,70.62,114.68,69.2Z" transform="translate(10.93)"/><path class="cls-5" d="M121.63,51.24a.61.61,0,0,0-.9.28c-.47,1.81-1.26,3.9-.23,5.68.83,1.46,2.59,2,4.34,2.56a.6.6,0,0,0,.65-.14.49.49,0,0,0,.23-.15C128.29,56.41,124.32,53.21,121.63,51.24Z" transform="translate(10.93)"/><path class="cls-5" d="M126.46,42.58a.61.61,0,0,0-.9.28c-.47,1.81-1.26,3.9-.23,5.68.83,1.46,2.59,2,4.34,2.56a.6.6,0,0,0,.65-.14.44.44,0,0,0,.23-.15C133.12,47.75,129.15,44.55,126.46,42.58Z" transform="translate(10.93)"/><path class="cls-5" d="M131.64,38.25a.61.61,0,0,0-.9.28c-.47,1.81-1.26,3.89-.24,5.68.84,1.46,2.59,2,4.35,2.56a.6.6,0,0,0,.65-.14.54.54,0,0,0,.23-.15C138.3,43.42,134.33,40.22,131.64,38.25Z" transform="translate(10.93)"/><path class="cls-5" d="M138.78,32.51a.63.63,0,0,0-.94.18c-.76,1.74-1.88,3.73-1.15,5.61.59,1.53,2.24,2.23,3.89,3a.61.61,0,0,0,.66-.07.49.49,0,0,0,.26-.13C144.54,38.31,141.13,34.73,138.78,32.51Z" transform="translate(10.93)"/><path class="cls-5" d="M165.89,59.47a.54.54,0,0,0,.23.15.6.6,0,0,0,.65.14c1.76-.57,3.51-1.1,4.35-2.56,1-1.78.23-3.87-.24-5.68a.61.61,0,0,0-.9-.28C167.29,53.21,163.32,56.41,165.89,59.47Z" transform="translate(10.93)"/><path class="cls-6" d="M161.06,54a.46.46,0,0,0,.23.15.6.6,0,0,0,.65.15c1.76-.58,3.51-1.11,4.35-2.57,1-1.78.23-3.87-.24-5.68a.61.61,0,0,0-.9-.27C162.46,47.78,158.49,51,161.06,54Z" transform="translate(10.93)"/><path class="cls-5" d="M155.88,46.48a.54.54,0,0,0,.23.15.61.61,0,0,0,.65.14c1.76-.57,3.51-1.1,4.35-2.56,1-1.79.23-3.87-.24-5.68a.61.61,0,0,0-.9-.28C157.28,40.22,153.31,43.42,155.88,46.48Z" transform="translate(10.93)"/><path class="cls-5" d="M150.11,41.08a.49.49,0,0,0,.26.13.61.61,0,0,0,.66.07c1.65-.75,3.3-1.45,3.9-3,.72-1.88-.4-3.87-1.16-5.61a.63.63,0,0,0-.94-.18C150.48,34.73,147.07,38.31,150.11,41.08Z" transform="translate(10.93)"/><path class="cls-5" d="M146.38,28a.64.64,0,0,0-1,0c-1.15,1.6-2.72,3.39-2.45,5.34.22,1.59,1.68,2.53,3.13,3.51a1.42,1.42,0,0,0,1-.07C150.69,34.56,148.17,30.54,146.38,28Z" transform="translate(10.93)"/><path class="cls-5" d="M111.31,77.65a.44.44,0,0,0-.43.68c1.2,1.58,2.41,3.55,4.69,4.31,1.86.63,3.6.08,5.39-.44.28-.08.38-.27.35-.45a.3.3,0,0,0,0-.23C120.63,77.89,115,77.65,111.31,77.65Z" transform="translate(10.93)"/><path class="cls-6" d="M121.78,85.3a.44.44,0,0,0-.43.68c1.2,1.59,2.4,3.55,4.68,4.31,1.87.63,3.61.08,5.4-.43a.42.42,0,0,0,.35-.46.34.34,0,0,0,.05-.23C131.1,85.54,125.44,85.3,121.78,85.3Z" transform="translate(10.93)"/><path class="cls-5" d="M128.35,92.27a.4.4,0,0,0,0,.76c2,1,4.17,2.3,6.64,2.17,2-.11,3.26-1.22,4.56-2.32a.36.36,0,0,0,.06-.53.42.42,0,0,0-.1-.23C136.8,89.15,131.62,91,128.35,92.27Z" transform="translate(10.93)"/><path class="cls-5" d="M136.77,97.08a.41.41,0,0,0,0,.77c2,1,4.17,2.3,6.64,2.17,2-.11,3.26-1.23,4.56-2.33a.36.36,0,0,0,.06-.53.36.36,0,0,0-.1-.22C145.22,94,140,95.78,136.77,97.08Z" transform="translate(10.93)"/><path class="cls-6" d="M119.19,76.25c-.43-.07-.73.31-.6.6.75,1.75,1.4,3.87,3.43,5,1.65.93,3.51.68,5.39.47a.48.48,0,0,0,.47-.38.38.38,0,0,0,.1-.22C128.23,78,122.77,76.87,119.19,76.25Z" transform="translate(10.93)"/><path class="cls-5" d="M131.6,106.67c-.26.18-.1.5.18.57,1.71.44,3.66,1.1,5.47.64a4.91,4.91,0,0,0,2.86-2.41.28.28,0,0,0-.08-.41.32.32,0,0,0-.12-.15C137.17,103.09,133.73,105.21,131.6,106.67Z" transform="translate(10.93)"/><path class="cls-5" d="M114.87,85.77c-.42-.09-.74.27-.63.57.64,1.77,1.17,3.92,3.13,5.12,1.59,1,3.46.81,5.35.67a.49.49,0,0,0,.49-.37.32.32,0,0,0,.12-.21C123.8,87.89,118.41,86.51,114.87,85.77Z" transform="translate(10.93)"/><path class="cls-6" d="M168.66,67.92a.44.44,0,0,0,.19.19.55.55,0,0,0,.58.26c1.88-.25,3.74-.45,5-1.72,1.51-1.55,1.34-3.73,1.41-5.57a.56.56,0,0,0-.8-.43C171.83,62.07,167.05,64.48,168.66,67.92Z" transform="translate(10.93)"/><path class="cls-6" d="M171.59,72.24a.37.37,0,0,0,0,.24.42.42,0,0,0,.36.45c1.78.52,3.53,1.06,5.39.44,2.28-.77,3.48-2.73,4.68-4.31a.44.44,0,0,0-.42-.69C178,68.38,172.32,68.61,171.59,72.24Z" transform="translate(10.93)"/><path class="cls-5" d="M168.58,94.22a.29.29,0,0,0,0,.24.38.38,0,0,0,.23.5c1.63.78,3.2,1.58,5.19,1.26,2.42-.4,4.08-2.14,5.65-3.51a.42.42,0,0,0-.26-.74C175.79,91.41,170.18,90.77,168.58,94.22Z" transform="translate(10.93)"/><path class="cls-5" d="M159.48,101.52a.34.34,0,0,0,0,.24.38.38,0,0,0,.24.49c1.62.79,3.2,1.59,5.18,1.26,2.43-.4,4.09-2.14,5.65-3.5a.42.42,0,0,0-.25-.74C166.69,98.71,161.08,98.07,159.48,101.52Z" transform="translate(10.93)"/><path class="cls-6" d="M152.75,106.43a.34.34,0,0,0,0,.24.39.39,0,0,0,.24.5c1.62.78,3.2,1.59,5.18,1.26,2.43-.4,4.09-2.14,5.65-3.51a.42.42,0,0,0-.25-.74C160,103.62,154.35,103,152.75,106.43Z" transform="translate(10.93)"/><path class="cls-5" d="M148.33,107.57a.59.59,0,0,0-.15.46A4.13,4.13,0,0,0,150.6,110c1.51.34,3.09-.24,4.48-.63.23-.07.35-.33.13-.47C153.42,107.7,150.53,106,148.33,107.57Z" transform="translate(10.93)"/><path class="cls-5" d="M144.57,107.57a.2.2,0,0,1,.08.13.24.24,0,0,1,0,.33,3.69,3.69,0,0,1-2.06,1.93c-1.27.34-2.61-.24-3.79-.63a.28.28,0,0,1-.12-.47C140.26,107.7,142.71,106,144.57,107.57Z" transform="translate(10.93)"/><path class="cls-6" d="M169.62,82.27a.34.34,0,0,0,.12.22.48.48,0,0,0,.49.36c1.89.14,3.75.32,5.35-.67,2-1.2,2.49-3.34,3.13-5.11a.5.5,0,0,0-.63-.58C174.54,77.24,169.15,78.62,169.62,82.27Z" transform="translate(10.93)"/><path class="cls-5" d="M169.62,88.3a.32.32,0,0,0,.12.22.5.5,0,0,0,.49.37c1.89.13,3.75.31,5.35-.67,2-1.21,2.49-3.35,3.13-5.12a.49.49,0,0,0-.63-.57C174.54,83.27,169.15,84.65,169.62,88.3Z" transform="translate(10.93)"/><path class="cls-5" d="M124.46,100.74a.41.41,0,0,0,0,.77c2,1,4.19,2.28,6.66,2.13,2-.12,3.25-1.24,4.54-2.35a.35.35,0,0,0,.05-.53.32.32,0,0,0-.09-.22C132.88,97.58,127.71,99.42,124.46,100.74Z" transform="translate(10.93)"/><path class="cls-5" d="M120,96.15a.41.41,0,0,0-.17.76c1.71,1.25,3.57,2.86,6,3.08,2,.19,3.49-.73,5-1.62a.37.37,0,0,0,.17-.52.29.29,0,0,0,0-.23C129,94.3,123.51,95.34,120,96.15Z" transform="translate(10.93)"/><path class="cls-5" d="M153,38.3c-.1-.21-.46-.19-.6,0-.87.93-2,2-2,3.2,0,1,.82,1.68,1.63,2.38a.4.4,0,0,0,.42,0,.34.34,0,0,0,.19,0C155.14,42.64,153.93,40,153,38.3Z" transform="translate(10.93)"/><path class="cls-5" d="M168.45,66.66c0-.22-.38-.28-.57-.16-1.16.72-2.61,1.47-3,2.66-.35,1,.22,1.79.77,2.64a.37.37,0,0,0,.39.13.38.38,0,0,0,.19,0C169,71.29,168.74,68.47,168.45,66.66Z" transform="translate(10.93)"/><path class="cls-6" d="M152.41,72a.41.41,0,0,0-.61,0c-.69,1-1.64,2.17-1.42,3.4.17,1,1.11,1.57,2.05,2.16a.38.38,0,0,0,.42,0,.29.29,0,0,0,.17-.06C155.27,76.05,153.59,73.56,152.41,72Z" transform="translate(10.93)"/><path class="cls-5" d="M131,56.76a.56.56,0,0,0-.8.43c.06,1.85-.1,4,1.41,5.58,1.23,1.27,3.09,1.47,5,1.71a.56.56,0,0,0,.59-.26.45.45,0,0,0,.18-.18C138.93,60.59,134.14,58.19,131,56.76Z" transform="translate(10.93)"/><path class="cls-6" d="M154.31,52.86c-.14-.33-.79-.4-1.1-.21-1.84,1.14-4.22,2.35-4.57,4.14-.28,1.47,1,2.66,2.34,3.88a.9.9,0,0,0,.75.19,1,1,0,0,0,.34,0C157,59.72,155.47,55.54,154.31,52.86Z" transform="translate(10.93)"/><path class="cls-5" d="M135.18,41.76a.63.63,0,0,0-.76.41c-.2,1.45-.65,3.19.46,4.29.91.9,2.52.9,4.13.93a.7.7,0,0,0,.56-.26.55.55,0,0,0,.18-.16C141.65,44.1,137.78,42.61,135.18,41.76Z" transform="translate(10.93)"/><path class="cls-5" d="M134.53,76.57a.65.65,0,0,0-.76.41c-.2,1.46-.65,3.2.46,4.3.92.9,2.52.89,4.14.92a.66.66,0,0,0,.55-.25.51.51,0,0,0,.19-.17C141,78.91,137.13,77.43,134.53,76.57Z" transform="translate(10.93)"/><path class="cls-5" d="M126.7,102.16a31.59,31.59,0,0,0-4.34.06,7.69,7.69,0,0,0-4.15,1.12c-2.58,1.85-2.71,5.82-2.77,8.08a18.27,18.27,0,0,0,1.29,7.36,14.12,14.12,0,0,0,4.4,5.89,13.58,13.58,0,0,0,16.73-.31,10.91,10.91,0,0,0,1.15-1.23,32.06,32.06,0,0,0,2.66-6.32c.8-3,.63-5.47-.85-7.74C137.89,104.55,132.54,102.48,126.7,102.16Z" transform="translate(10.93)"/><path class="cls-6" d="M135.51,121.26c-2.46,1.37-5,2.62-7.51,2.77a11.34,11.34,0,0,1-6.38-1.68,19.65,19.65,0,0,1-4.89-3.57,14.12,14.12,0,0,0,4.4,5.89,13.58,13.58,0,0,0,16.73-.31,10.91,10.91,0,0,0,1.15-1.23,32.06,32.06,0,0,0,2.66-6.32A28.21,28.21,0,0,1,135.51,121.26Z" transform="translate(10.93)"/><path class="cls-6" d="M122.74,104.87a.18.18,0,0,0,.14,0,.31.31,0,0,0,.29-.22,4.57,4.57,0,0,0,.53-3c-.36-1.19-1.49-1.71-2.4-2.26a.32.32,0,0,0-.44.28C120.69,101.65,120.56,104.72,122.74,104.87Z" transform="translate(10.93)"/><path class="cls-5" d="M132.28,106.07a.24.24,0,0,0,.15,0,.32.32,0,0,0,.29-.22,4.63,4.63,0,0,0,.53-3c-.36-1.19-1.5-1.72-2.41-2.26a.32.32,0,0,0-.43.28C130.23,102.85,130.11,105.92,132.28,106.07Z" transform="translate(10.93)"/><path class="cls-5" d="M136.13,107.52a.19.19,0,0,0,.15,0,.3.3,0,0,0,.34-.12,4.57,4.57,0,0,0,1.37-2.69c0-1.24-.93-2.07-1.63-2.86a.31.31,0,0,0-.5.14C135.11,103.84,134.09,106.74,136.13,107.52Z" transform="translate(10.93)"/><path class="cls-5" d="M120.91,105.41a.21.21,0,0,0,.07-.13.31.31,0,0,0,.06-.36,4.67,4.67,0,0,0-1.7-2.5c-1.08-.6-2.26-.18-3.29.06a.31.31,0,0,0-.12.5C117.2,104.53,119.24,106.82,120.91,105.41Z" transform="translate(10.93)"/><path class="cls-5" d="M118.86,109.31a.21.21,0,0,1,0,.14.29.29,0,0,1-.17.3,4.26,4.26,0,0,1-2.78.75c-1.19-.24-1.87-1.29-2.53-2.1a.29.29,0,0,1,.2-.45C115.45,107.62,118.38,107.25,118.86,109.31Z" transform="translate(10.93)"/><path class="cls-6" d="M119.76,117.59a.22.22,0,0,1,0,.14.27.27,0,0,1-.16.3,4.28,4.28,0,0,1-2.78.75c-1.2-.24-1.87-1.29-2.54-2.11a.29.29,0,0,1,.2-.44C116.36,115.9,119.29,115.52,119.76,117.59Z" transform="translate(10.93)"/><path class="cls-5" d="M133,120.7a.24.24,0,0,1,.11.09.26.26,0,0,1,.17.29,4.27,4.27,0,0,1-.76,2.77c-.81.92-2.06,1-3.1,1.13a.3.3,0,0,1-.28-.4C129.85,122.78,131,120.06,133,120.7Z" transform="translate(10.93)"/><path class="cls-6" d="M131.49,128.31c-.05.22.24.41.47.38,1.34-.2,3-.31,3.84-1.22.71-.76.51-1.74.35-2.73a.36.36,0,0,0-.3-.28.3.3,0,0,0-.17-.08C132.84,123.85,132,126.54,131.49,128.31Z" transform="translate(10.93)"/><path class="cls-6" d="M122.53,127.34c-.15.17,0,.48.25.55,1.3.41,2.81,1,4,.58,1-.37,1.22-1.34,1.51-2.3a.38.38,0,0,0-.15-.39.31.31,0,0,0-.12-.14C125.69,123.92,123.72,126,122.53,127.34Z" transform="translate(10.93)"/><path class="cls-6" d="M116.2,122.55c-.17.08-.14.39,0,.53.9.79,1.91,1.84,3,1.9.91,0,1.46-.64,2-1.32a.34.34,0,0,0,0-.36.41.41,0,0,0-.05-.17C120,120.92,117.66,121.85,116.2,122.55Z" transform="translate(10.93)"/><path class="cls-6" d="M129.47,105.15c-.15-.14-.45,0-.53.19-.5,1.11-1.2,2.41-.86,3.47.28.87,1.19,1.16,2.09,1.47a.35.35,0,0,0,.38-.11.3.3,0,0,0,.15-.09C132.52,108.15,130.72,106.28,129.47,105.15Z" transform="translate(10.93)"/><path class="cls-6" d="M136.67,109.45c-.12-.17-.45-.08-.56.09-.69,1-1.61,2.15-1.47,3.26.12.91,1,1.35,1.8,1.82a.37.37,0,0,0,.39,0,.32.32,0,0,0,.17-.06C139.13,112.94,137.7,110.79,136.67,109.45Z" transform="translate(10.93)"/><path class="cls-5" d="M120.59,106c-.2,0-.38.25-.34.45.21,1.2.35,2.67,1.23,3.36.72.57,1.63.3,2.56,0a.38.38,0,0,0,.25-.3.26.26,0,0,0,.07-.16C124.8,106.78,122.26,106.24,120.59,106Z" transform="translate(10.93)"/><path class="cls-5" d="M123.8,116.31c-.17.12-.1.45.06.57,1,.73,2.07,1.71,3.19,1.62.91-.07,1.39-.9,1.9-1.71a.39.39,0,0,0,0-.39.44.44,0,0,0-.06-.17C127.41,114,125.19,115.35,123.8,116.31Z" transform="translate(10.93)"/><path class="cls-6" d="M144.13,92s.8,79.47-1.77,109.31h8.9S144.71,99.38,144.13,92Z" transform="translate(10.93)"/><path class="cls-6" d="M145.29,111.13s7.22-9.66,9-13.58c0,0-7.27,14.43-8.61,19.43Z" transform="translate(10.93)"/><path class="cls-6" d="M145.32,128.48s-5.15-4.87-10.73-9.81c0,0,7.1,10.67,10.31,15.66Z" transform="translate(10.93)"/><path class="cls-6" d="M145,107s-4.21-5.66-5.29-8c0,0,4.24,8.54,5,11.54Z" transform="translate(10.93)"/><path class="cls-5" d="M113.88,183.7a5.3,5.3,0,0,0,3.56.25l.11,0a18.21,18.21,0,0,1,2.47,1.33,7.25,7.25,0,0,0-2.71.55c-.89.37-2.29,1.42-1.56,2.3.94,1.13,4.66-.29,6.19-1.43a22.09,22.09,0,0,1,2.93,3,7.21,7.21,0,0,0-2.65.22c-.93.26-2.45,1.13-1.84,2.09.73,1.14,4.06.43,5.88-.43a35.57,35.57,0,0,1,2,3.37,7.38,7.38,0,0,0-2.52-.34c-1,0-2.65.54-2.26,1.62.45,1.29,3.9,1.34,5.86.9.55,1.16,1,2.2,1.48,3.31a7.22,7.22,0,0,0-2.76-.89c-1-.1-2.7.14-2.48,1.26.28,1.46,4.26,2,6.14,1.72.27.35,1,0,.92-.45l-.12-.3a3.76,3.76,0,0,0,1.42-1.69,1.25,1.25,0,0,0,0,.21c.05,1.42,3.59,2.53,5.56,2.63a.5.5,0,0,0,.78-.2,10,10,0,0,0,1-.8,10,10,0,0,0,1,.8.51.51,0,0,0,.79.2c2-.1,5.5-1.21,5.55-2.63,0-1.14-1.71-1.12-2.65-.87a6.94,6.94,0,0,0-2.34,1.12c.12-.6.24-1.2.37-1.8a10.33,10.33,0,0,0,4.64-1.49,8.54,8.54,0,0,0,.23,2,3.92,3.92,0,0,0,1.68,2.54l-.12.3c-.07.43.65.8.92.45,1.88.28,5.86-.26,6.15-1.72.21-1.12-1.52-1.36-2.48-1.26a7.22,7.22,0,0,0-2.77.89c.47-1.11.94-2.15,1.49-3.31,2,.44,5.4.39,5.86-.9.38-1.08-1.3-1.58-2.26-1.62a7.32,7.32,0,0,0-2.52.34,37.73,37.73,0,0,1,2-3.37c1.82.86,5.15,1.57,5.88.43.62-1-.9-1.83-1.83-2.09a7.26,7.26,0,0,0-2.66-.22,22.16,22.16,0,0,1,2.94-3c1.52,1.14,5.24,2.56,6.19,1.43.73-.88-.67-1.93-1.56-2.3a7.29,7.29,0,0,0-2.71-.55,18.09,18.09,0,0,1,2.46-1.33l.11,0a5.3,5.3,0,0,0,3.56-.25,2.92,2.92,0,0,0,1.21-2.56.49.49,0,0,0-.29-.39,5.16,5.16,0,0,0-3.11,0,4,4,0,0,0-2.16,2.33v0c-.58.27-1.14.56-1.68.88a6.46,6.46,0,0,0,.27-1.92c0-.65-.1-2.55-1.22-2.28-.84.2-1.47,2-1.68,2.73a3.89,3.89,0,0,0,.28,3.1,21.8,21.8,0,0,0-2.72,2.63,6.76,6.76,0,0,0,0-1.74c-.09-.64-.42-2.52-1.5-2.12-.81.31-1.21,2.19-1.33,2.92a3.88,3.88,0,0,0,.82,3.25.5.5,0,0,0-.06.38c-.59.87-1.15,1.77-1.66,2.7l-.08.16a6.33,6.33,0,0,0-.4-1.89c-.24-.61-1-2.36-1.94-1.72-.72.48-.68,2.4-.64,3.14a3.92,3.92,0,0,0,1.53,3,.57.57,0,0,0,0,.29c-.36.73-.71,1.47-1,2.22a6.27,6.27,0,0,0-.59-1.42c-.28-.49-1.05-1.74-1.8-1.61-.25-.84-1.76-.8-2.61-.58a7.38,7.38,0,0,0-2.29,1.07c.32-1.44.64-2.88,1-4.32,1.9,0,5.74-1.15,5.8-2.63,0-1.14-1.71-1.12-2.65-.87a7.17,7.17,0,0,0-2.6,1.31c.3-1.18.63-2.34,1-3.5,2,.13,5.39-.45,5.64-1.79.22-1.12-1.52-1.36-2.48-1.26a7.11,7.11,0,0,0-2.44.73,35.88,35.88,0,0,1,1.46-3.64c1.93.57,5.32.76,5.87-.48.46-1-1.17-1.66-2.13-1.78a7.19,7.19,0,0,0-2.66.19,22.34,22.34,0,0,1,2.43-3.45c1.68.9,5.58,1.73,6.34.46.58-1-1-1.79-1.9-2a7.15,7.15,0,0,0-2.76-.12,17.18,17.18,0,0,1,2.23-1.69.23.23,0,0,0,.11,0,5.21,5.21,0,0,0,3.48-.8,2.91,2.91,0,0,0,.8-2.71.47.47,0,0,0-.34-.34,5.19,5.19,0,0,0-3.07.52,3.94,3.94,0,0,0-1.77,2.62,0,0,0,0,1,0,0,17.11,17.11,0,0,0-1.52,1.13,6.65,6.65,0,0,0,0-1.94c-.11-.64-.5-2.51-1.57-2.07-.8.33-1.14,2.23-1.24,3a3.9,3.9,0,0,0,.76,3,21.45,21.45,0,0,0-2.28,3,6.92,6.92,0,0,0-.27-1.72c-.19-.62-.8-2.42-1.81-1.86-.75.43-.85,2.35-.86,3.09a3.88,3.88,0,0,0,1.31,3.08.53.53,0,0,0,0,.39c-.45,1-.86,1.93-1.22,2.93L147,183a6.26,6.26,0,0,0-.69-1.81c-.32-.57-1.33-2.19-2.18-1.41-.64.58-.3,2.48-.14,3.21a3.89,3.89,0,0,0,2,2.7.59.59,0,0,0,.05.32c-.24.78-.46,1.56-.68,2.35a6,6,0,0,0-.82-1.34c-.4-.51-1.64-2-2.37-1.06-.54.67.08,2.49.34,3.19a3.93,3.93,0,0,0,2.07,2.25q-.5,2-.93,4.08a6.3,6.3,0,0,0-1-1.71l-.18-.22a1.35,1.35,0,0,0-.21-.84,2.81,2.81,0,0,0-2,0,1.35,1.35,0,0,0-.21.84l-.18.22a6.3,6.3,0,0,0-1,1.71q-.44-2-.93-4.08a3.93,3.93,0,0,0,2.07-2.25c.27-.7.88-2.52.34-3.19-.72-.9-2,.55-2.37,1.06a6.43,6.43,0,0,0-.82,1.34c-.21-.79-.44-1.57-.68-2.35a.51.51,0,0,0,.05-.32,3.86,3.86,0,0,0,2-2.7c.16-.73.5-2.63-.14-3.21-.85-.78-1.86.84-2.18,1.41a6.56,6.56,0,0,0-.69,1.81l-.06-.17c-.36-1-.77-2-1.22-2.93a.48.48,0,0,0,0-.39,3.84,3.84,0,0,0,1.3-3.08c0-.74-.11-2.66-.86-3.09-1-.56-1.62,1.24-1.81,1.86a6.46,6.46,0,0,0-.26,1.72,22.32,22.32,0,0,0-2.29-3,3.9,3.9,0,0,0,.76-3c-.1-.73-.44-2.63-1.24-3-1.07-.44-1.46,1.43-1.57,2.07a6.65,6.65,0,0,0,0,1.94,17.11,17.11,0,0,0-1.52-1.13,0,0,0,0,0,0,0,3.94,3.94,0,0,0-1.77-2.62,5.19,5.19,0,0,0-3.07-.52.47.47,0,0,0-.34.34,2.91,2.91,0,0,0,.8,2.71,5.22,5.22,0,0,0,3.48.8.2.2,0,0,0,.11,0,17.18,17.18,0,0,1,2.23,1.69,7.15,7.15,0,0,0-2.76.12c-.94.24-2.48,1.05-1.9,2,.76,1.27,4.66.44,6.34-.46a23.11,23.11,0,0,1,2.44,3.45,7.22,7.22,0,0,0-2.66-.19c-1,.12-2.6.74-2.14,1.78.55,1.24,4,1,5.88.48a35.82,35.82,0,0,1,1.45,3.64,7.11,7.11,0,0,0-2.44-.73c-1-.1-2.69.14-2.48,1.26.25,1.34,3.64,1.92,5.64,1.79.34,1.16.67,2.32,1,3.5a7.17,7.17,0,0,0-2.6-1.31c-.93-.25-2.68-.27-2.64.87.05,1.48,3.89,2.62,5.79,2.63.35,1.44.67,2.88,1,4.32a7.28,7.28,0,0,0-2.29-1.07c-.89-.23-2.51-.27-2.63.71a4.17,4.17,0,0,0-1.24,1.48,5.48,5.48,0,0,0-.59,1.42c-.34-.75-.68-1.49-1-2.22a.48.48,0,0,0,0-.29,3.86,3.86,0,0,0,1.53-3c0-.74.09-2.66-.63-3.14-1-.64-1.71,1.11-1.94,1.72a6.33,6.33,0,0,0-.4,1.89l-.09-.16q-.77-1.39-1.65-2.7a.5.5,0,0,0-.06-.38,3.91,3.91,0,0,0,.82-3.25c-.13-.73-.53-2.61-1.33-2.92-1.09-.4-1.42,1.48-1.51,2.12a6.33,6.33,0,0,0,0,1.74,22.51,22.51,0,0,0-2.72-2.63,3.93,3.93,0,0,0,.28-3.1c-.21-.71-.84-2.53-1.68-2.73-1.13-.27-1.22,1.63-1.23,2.28a6.46,6.46,0,0,0,.28,1.92c-.54-.32-1.1-.61-1.68-.88v0a4,4,0,0,0-2.16-2.33,5.16,5.16,0,0,0-3.11,0,.49.49,0,0,0-.29.39A3,3,0,0,0,113.88,183.7Zm27.35,13.58-.12-.11.12-.14.12.14Zm-7.2,2.55a6.13,6.13,0,0,0,.18-.61,9.59,9.59,0,0,0,.22-1.65,11.26,11.26,0,0,0,4.12,1.16c.12.6.24,1.2.37,1.8a7,7,0,0,0-2.35-1.12C135.78,199.2,134.41,199.15,134,199.83Z" transform="translate(10.93)"/></g><rect class="cls-7" x="136.12" y="23.01" width="104.3" height="134.51"/><polygon class="cls-8" points="172.37 155.09 161.45 155.09 207.85 24.55 218.77 24.55 172.37 155.09"/><polygon class="cls-8" points="153.09 155.09 147.63 155.09 194.03 24.55 199.49 24.55 153.09 155.09"/><polygon class="cls-8" points="206.15 155.09 200.69 155.09 239.17 38.67 240.33 46.25 206.15 155.09"/><rect class="cls-9" x="134.52" y="21.47" width="3.08" height="137.78"/><rect class="cls-9" x="169.29" y="22.17" width="3.08" height="136.39"/><rect class="cls-9" x="175.75" y="-30.68" width="3.08" height="107.38" transform="translate(165.2 200.3) rotate(-90)"/><rect class="cls-9" x="175.75" y="103.83" width="3.08" height="107.38" transform="translate(30.7 334.8) rotate(-90)"/><rect class="cls-9" x="204.06" y="22.17" width="3.08" height="136.39"/><rect class="cls-9" x="238.82" y="21.47" width="3.08" height="137.78"/><rect class="cls-9" x="134.52" y="88.82" width="107.38" height="3.08"/><rect class="cls-6" x="137.62" y="91.9" width="101.19" height="1.09"/><rect class="cls-6" x="137.62" y="155.09" width="101.19" height="1.09"/><rect class="cls-6" x="137.59" y="24.55" width="101.25" height="1.09"/><rect class="cls-6" y="55.09" width="79.33" height="47.83"/><rect class="cls-2" x="3.94" y="59.07" width="71.46" height="39.87"/><rect class="cls-5" x="10.29" y="64.48" width="58.75" height="29.05"/><path class="cls-6" d="M-.64,93.53,8.62,80.1a.87.87,0,0,1,1.46,0l5.09,8.07,4.09-4.33a.87.87,0,0,1,1.4.17l5.22,9.49Z" transform="translate(10.93)"/><path class="cls-9" d="M17.3,71.32a2.9,2.9,0,1,1-2.9-2.9A2.9,2.9,0,0,1,17.3,71.32Z" transform="translate(10.93)"/><path class="cls-9" d="M36.72,70.83c-.62-.17-.88-.78-1.45-1a2.14,2.14,0,0,0-1.61-.08,2.54,2.54,0,0,0-.71.37c-.56.36-.45.38-1.08.47a7.34,7.34,0,0,0-1.33.3c-.9.27-3.51,0-4,1.16s1,.81,1.5.85c.83.07,1.49.57,2.31.59a5.11,5.11,0,0,0,2.15-.58h2a21.61,21.61,0,0,0,3.51-.12c.3-.06.63-.1.77-.41C39.47,71.05,37.24,71,36.72,70.83Z" transform="translate(10.93)"/><path class="cls-9" d="M46.85,73a1.48,1.48,0,0,0-.78,0,6.75,6.75,0,0,1-.73.22A3.93,3.93,0,0,1,44.5,73a3.63,3.63,0,0,0-2,.35,1.06,1.06,0,0,0-1,.19.77.77,0,0,0-.05,1.11,3.27,3.27,0,0,0,1.94.56,8,8,0,0,0,3.12-.3C47.36,74.57,48.05,73.41,46.85,73Z" transform="translate(10.93)"/><path class="cls-6" d="M32.74,93.53,38.52,83.2a.54.54,0,0,1,.93,0l4.38,7.15,1.85-2.89a.54.54,0,0,1,.94.06l2.86,6,4.81-11.17a.54.54,0,0,1,1,0l2.83,7.93v3.2Z" transform="translate(10.93)"/><path class="cls-5" d="M90.21,45.6A18.11,18.11,0,0,0,108.3,27.51h-.85a17.24,17.24,0,0,1-34.48,0h-.85A18.1,18.1,0,0,0,90.21,45.6Z" transform="translate(10.93)"/><polygon class="cls-6" points="101.38 13.36 124.19 32.26 73.89 32.26 101.38 13.36"/><polygon class="cls-10" points="112.72 29.59 136.81 107.25 66.75 107.25 89.52 29.59 112.72 29.59"/><polygon class="cls-5" points="102.43 0.1 102.43 11.02 102.43 14.14 102.43 14.22 102.43 15.7 102.43 15.86 102.43 19.18 100.21 19.18 100.21 15.86 100.21 15.69 100.21 14.24 100.21 14.16 100.21 11.03 100.21 1.09 102.43 0.1"/><path class="cls-11" d="M86.68,15.86H94.1a0,0,0,0,1,0,0v5.42a2.62,2.62,0,0,1-2.62,2.62H89.3a2.62,2.62,0,0,1-2.62-2.62V15.86A0,0,0,0,1,86.68,15.86Z" transform="translate(191.71 39.76) rotate(180)"/><path class="cls-5" d="M86.17,32.9a4.32,4.32,0,1,1,4.32,4.32A4.31,4.31,0,0,1,86.17,32.9Z" transform="translate(10.93)"/><path class="cls-9" d="M90.43,35.61a3.51,3.51,0,0,0,2.7-2.08c.09-.38.69-.22.59.17a4,4,0,0,1-3.12,2.5C90.21,36.27,90,35.68,90.43,35.61Z" transform="translate(10.93)"/><polygon class="cls-5" points="101.38 13.36 126.53 32.26 76.23 32.26 101.38 13.36"/><rect class="cls-5" x="99.04" y="11.02" width="4.67" height="4.67" rx="1.3"/></g><path class="cls-12" d="M60.16,200.15a.87.87,0,0,1-.87.87l-6.24,0-29,.09a.87.87,0,0,1-.87-.87v-3.15a.88.88,0,0,1,.87-.88h3L53,196.14l6.31,0a1.13,1.13,0,0,1,.32.06.88.88,0,0,1,.55.81Z" transform="translate(10.93)"/><path d="M24.07,201.28a1,1,0,0,1-1-1v-3.15a1,1,0,0,1,1-1L59.28,196a1,1,0,0,1,1,1v3.16a1,1,0,0,1-1,1Zm35.21-5-35.23.11a.71.71,0,0,0-.71.72v3.15a.71.71,0,0,0,.71.71l35.23-.1a.73.73,0,0,0,.72-.72V197a.71.71,0,0,0-.46-.66A.75.75,0,0,0,59.28,196.28Z" transform="translate(10.93)"/><path class="cls-12" d="M63.49,195.3a.87.87,0,0,1-.87.88h-3l-6.52,0-25.69.08a.75.75,0,0,1-.33-.07.88.88,0,0,1-.54-.8v-3.16a.87.87,0,0,1,.87-.87l23.41-.07,11.82,0a.87.87,0,0,1,.87.87Z" transform="translate(10.93)"/><path d="M27.39,196.44a1.07,1.07,0,0,1-.39-.07,1,1,0,0,1-.63-1v-3.16a1,1,0,0,1,1-1l35.23-.11a1,1,0,0,1,1,1v3.15a1,1,0,0,1-1,1Zm35.23-5h0l-35.23.11a.72.72,0,0,0-.71.71v3.16a.71.71,0,0,0,.44.66.65.65,0,0,0,.27,0L62.62,196a.72.72,0,0,0,.72-.72v-3.15a.75.75,0,0,0-.21-.51A.74.74,0,0,0,62.62,191.44Z" transform="translate(10.93)"/><path class="cls-12" d="M61.16,190.41a.87.87,0,0,1-.87.87l-9.51,0h0l-25.71.08a.87.87,0,0,1-.87-.87v-3.15a.88.88,0,0,1,.87-.88l20.82-.06,12.12,0h2.28a.86.86,0,0,1,.88.86Z" transform="translate(10.93)"/><path d="M25.06,191.55a1,1,0,0,1-1-1v-3.15a1,1,0,0,1,.7-1,1,1,0,0,1,.33-.06l35.22-.11a1,1,0,0,1,1,1v3.16a1,1,0,0,1-1,1Zm35.21-5-35.22.11a.62.62,0,0,0-.23,0,.72.72,0,0,0-.49.68v3.15a.72.72,0,0,0,.72.72l25.68-.08.06,0,0,0,9.45,0a.71.71,0,0,0,.71-.72v-3.16A.73.73,0,0,0,60.27,186.54Z" transform="translate(10.93)"/><path class="cls-12" d="M60.16,170.93a.87.87,0,0,1-.87.87l-6.24,0-29,.09a.86.86,0,0,1-.87-.87v-3.15a.89.89,0,0,1,.87-.88h3L53,166.93l6.31,0a.87.87,0,0,1,.87.87Z" transform="translate(10.93)"/><path d="M24.07,172.07a1,1,0,0,1-1-1v-3.15a1,1,0,0,1,1-1l35.23-.11a1.27,1.27,0,0,1,.38.07,1,1,0,0,1,.65,1v3.15a1,1,0,0,1-1,1Zm35.21-5-35.23.11a.72.72,0,0,0-.71.72V171a.71.71,0,0,0,.71.72l35.23-.11a.72.72,0,0,0,.72-.72v-3.15a.71.71,0,0,0-.46-.67A.75.75,0,0,0,59.28,167.06Z" transform="translate(10.93)"/><path class="cls-12" d="M63.49,166.09a.86.86,0,0,1-.87.87h-3l-6.52,0-25.69.08a.92.92,0,0,1-.33-.06.88.88,0,0,1-.54-.81v-3.15a.88.88,0,0,1,.87-.88l23.41-.07,11.82,0a.86.86,0,0,1,.87.87Z" transform="translate(10.93)"/><path d="M27.39,167.23a1.09,1.09,0,0,1-.39-.08,1,1,0,0,1-.63-1v-3.15a1,1,0,0,1,.3-.73,1,1,0,0,1,.72-.3l35.23-.11a1,1,0,0,1,1,1v3.15a1,1,0,0,1-1,1Zm35.23-5h0l-35.23.11a.67.67,0,0,0-.5.21.71.71,0,0,0-.21.51v3.15a.71.71,0,0,0,.44.66.66.66,0,0,0,.27.06l35.23-.11a.72.72,0,0,0,.72-.72v-3.15a.72.72,0,0,0-.21-.51A.7.7,0,0,0,62.62,162.22Z" transform="translate(10.93)"/><path class="cls-12" d="M61.16,161.19a.89.89,0,0,1-.87.88l-9.51,0h0l-25.71.07a.86.86,0,0,1-.87-.87v-3.15a.85.85,0,0,1,.59-.82.87.87,0,0,1,.28-.05l20.82-.07,12.12,0h2.28a.87.87,0,0,1,.88.87Z" transform="translate(10.93)"/><path d="M25.06,162.33a1,1,0,0,1-1-1v-3.16a1,1,0,0,1,.7-1,1,1,0,0,1,.33-.06L60.27,157a1,1,0,0,1,1,1v3.15a1,1,0,0,1-1,1Zm35.21-5-35.22.11a.62.62,0,0,0-.23,0,.73.73,0,0,0-.49.68v3.15a.72.72,0,0,0,.72.72l25.68-.08.06,0,0,0,9.45,0a.7.7,0,0,0,.71-.72V158A.73.73,0,0,0,60.27,157.32Z" transform="translate(10.93)"/><path class="cls-12" d="M58.58,185.57a.88.88,0,0,1-.87.87l-11.77,0-21.17.06H22.48a.87.87,0,0,1-.87-.87v-3.16a.87.87,0,0,1,.87-.87H27.2l21.36-.07h0l9.14,0a.62.62,0,0,1,.19,0,.87.87,0,0,1,.68.84Z" transform="translate(10.93)"/><path d="M22.48,186.7a1,1,0,0,1-1-1v-3.15a1,1,0,0,1,1-1l26.24-.08h0l9,0a.85.85,0,0,1,.23,0,1,1,0,0,1,.8,1v3.16a1,1,0,0,1-.69,1,.91.91,0,0,1-.33.05Zm26.05-5-26.06.08a.71.71,0,0,0-.72.71v3.16a.72.72,0,0,0,.72.72l35.23-.12a.85.85,0,0,0,.23,0,.72.72,0,0,0,.48-.68v-3.16a.71.71,0,0,0-.56-.69l-.15,0-9.07,0,0,0Z" transform="translate(10.93)"/><path class="cls-12" d="M63.49,180.68a.86.86,0,0,1-.87.87l-4.73,0-9.29,0-21.21.07-.19,0a.9.9,0,0,1-.68-.84v-3.16a.87.87,0,0,1,.67-.85.65.65,0,0,1,.2,0l20.09-.06,15.14-.05a.83.83,0,0,1,.22,0,.85.85,0,0,1,.65.84Z" transform="translate(10.93)"/><path d="M27.39,181.81a.82.82,0,0,1-.22,0,1,1,0,0,1-.8-1v-3.16a1,1,0,0,1,.78-1,.88.88,0,0,1,.24,0l35.23-.11a.75.75,0,0,1,.26,0,1,1,0,0,1,.77,1v3.15a1,1,0,0,1-1,1Zm35.22-5-35.23.11-.16,0a.72.72,0,0,0-.55.7v3.16a.71.71,0,0,0,.56.69l.15,0,35.23-.11a.72.72,0,0,0,.72-.72v-3.15a.71.71,0,0,0-.54-.69A.48.48,0,0,0,62.61,176.81Z" transform="translate(10.93)"/><path class="cls-12" d="M63.49,175.84a.88.88,0,0,1-.66.85.71.71,0,0,1-.21,0l-15,0-20.19.06a.71.71,0,0,1-.21,0,.87.87,0,0,1-.66-.84V172.8a.87.87,0,0,1,.87-.87l3.76,0,12,0,19.42-.07.13,0a.86.86,0,0,1,.74.85Z" transform="translate(10.93)"/><path d="M27.39,177a1.09,1.09,0,0,1-.26,0,1,1,0,0,1-.76-1V172.8a1,1,0,0,1,1-1l35.23-.11h.16a1,1,0,0,1,.87,1v3.16a1,1,0,0,1-.78,1,.9.9,0,0,1-.25,0Zm35.22-5-35.23.11a.75.75,0,0,0-.51.21.74.74,0,0,0-.2.51V176a.71.71,0,0,0,.53.69.57.57,0,0,0,.18,0l35.23-.11.17,0a.73.73,0,0,0,.55-.7v-3.16a.73.73,0,0,0-.61-.7Z" transform="translate(10.93)"/><path class="cls-13" d="M87.22,196.17a.75.75,0,0,0,.18-.13,1,1,0,0,0,.3-.72v-3.16a1,1,0,0,0-.3-.72,1.06,1.06,0,0,0-.73-.3H85.2a1,1,0,0,0,.3-.72v-3.15a1,1,0,0,0-1-1h0l-4.16,0a1,1,0,0,0,.29-.71v-3.16a1,1,0,0,0-1-1h0l-35.22.11a1,1,0,0,0-.73.3,1,1,0,0,0-.3.73v3.15a1,1,0,0,0,1,1h4.15a1,1,0,0,0-.28.71v3.16a1,1,0,0,0,1,1h1.47a1,1,0,0,0-.3.73v3.15a1,1,0,0,0,.47.84,1.13,1.13,0,0,0-.18.12,1,1,0,0,0-.3.73v3.15a1,1,0,0,0,1,1h0l35.23-.11a1,1,0,0,0,1-1V197A1,1,0,0,0,87.22,196.17Z" transform="translate(10.93)"/><path class="cls-12" d="M91.1,201l-35.22.11a.87.87,0,0,1-.88-.87v-3.15a.89.89,0,0,1,.87-.88l35.23-.1A.86.86,0,0,1,92,197v3.15A.87.87,0,0,1,91.1,201Z" transform="translate(10.93)"/><path d="M55.87,201.3a1,1,0,0,1-.72-.3,1,1,0,0,1-.3-.73v-3.15a1,1,0,0,1,.29-.73,1.06,1.06,0,0,1,.73-.3L91.09,196h0a1,1,0,0,1,1,1v3.16a1,1,0,0,1-1,1l-35.22.11Zm35.22-5h0l-35.23.11a.75.75,0,0,0-.51.21.74.74,0,0,0-.2.51v3.15a.72.72,0,0,0,.71.72h0l35.23-.11a.72.72,0,0,0,.72-.72V197A.72.72,0,0,0,91.09,196.29Z" transform="translate(10.93)"/><path class="cls-12" d="M84,186.42l-35.23.11a.87.87,0,0,1-.87-.87V182.5a.86.86,0,0,1,.86-.87L84,181.52a.88.88,0,0,1,.88.87v3.16A.87.87,0,0,1,84,186.42Z" transform="translate(10.93)"/><path d="M48.77,186.68a1,1,0,0,1-1-1v-3.15a1,1,0,0,1,.3-.73,1,1,0,0,1,.72-.3L84,181.37h0a1,1,0,0,1,.72.3,1,1,0,0,1,.3.72v3.16a1,1,0,0,1-.3.72,1,1,0,0,1-.72.3l-35.23.11Zm35.22-5h0l-35.23.11a.72.72,0,0,0-.71.71v3.16a.72.72,0,0,0,.72.71h0L84,186.26a.72.72,0,0,0,.71-.71v-3.16a.72.72,0,0,0-.71-.71Z" transform="translate(10.93)"/><path class="cls-12" d="M91.1,196.19l-35.22.11a.87.87,0,0,1-.88-.87v-3.15a.89.89,0,0,1,.87-.88l35.23-.1a.86.86,0,0,1,.87.86v3.16A.87.87,0,0,1,91.1,196.19Z" transform="translate(10.93)"/><path d="M55.87,196.45a1,1,0,0,1-1-1v-3.15a1,1,0,0,1,.29-.73,1.06,1.06,0,0,1,.73-.3l35.23-.11a1,1,0,0,1,.72.3,1,1,0,0,1,.31.72v3.16a1,1,0,0,1-1,1l-35.22.1Zm35.22-5h0l-35.23.11a.71.71,0,0,0-.51.21.74.74,0,0,0-.2.51v3.15a.71.71,0,0,0,.21.51.7.7,0,0,0,.5.2h0L91.1,196a.72.72,0,0,0,.72-.72v-3.16a.72.72,0,0,0-.72-.71Z" transform="translate(10.93)"/><path class="cls-12" d="M88.9,191.3l-35.23.1a.86.86,0,0,1-.87-.86v-3.16a.87.87,0,0,1,.87-.87l35.22-.11a.87.87,0,0,1,.88.87v3.15A.89.89,0,0,1,88.9,191.3Z" transform="translate(10.93)"/><path d="M53.67,191.56a1,1,0,0,1-1-1v-3.16a1,1,0,0,1,1-1l35.22-.11h0a1,1,0,0,1,1,1v3.15a1,1,0,0,1-1,1l-35.23.11Zm35.22-5h0l-35.23.11a.72.72,0,0,0-.72.72v3.16a.72.72,0,0,0,.72.71h0l35.23-.11a.71.71,0,0,0,.71-.72v-3.15A.71.71,0,0,0,88.89,186.55Z" transform="translate(10.93)"/><path d="M17.32,198c-4.75-4.41-5.89-12.62-2.33-20s10.58-11.6,17-10.74l.25-.52,3.27,1.57c7.11,3.41,9.47,13.28,5.27,22S27.36,203.44,20.25,200l-3.2-1.43Z" transform="translate(10.93)"/><path class="cls-12" d="M11.71,176.42c-4.21,8.76-1.77,18.76,5.34,22.18s16.21-1.07,20.41-9.83,1.85-18.63-5.26-22S15.91,167.66,11.71,176.42Z" transform="translate(10.93)"/><path class="cls-12" d="M14,177.53c-3.45,7.19-1.45,15.41,4.39,18.21s13.32-.87,16.77-8.06,1.51-15.31-4.33-18.11S17.46,170.33,14,177.53Z" transform="translate(10.93)"/><path d="M28.49,187a3.68,3.68,0,0,0,.2-1.23,3.57,3.57,0,0,0-.19-1.13,4.67,4.67,0,0,0-.52-1,6.73,6.73,0,0,0-.76-1,10.92,10.92,0,0,0-.9-.9l-1-.88,1.73-5.34a3.08,3.08,0,0,1,1.3,1.22,4,4,0,0,1,.43,1.85l1.92.62a5.61,5.61,0,0,0,0-1.88,4.64,4.64,0,0,0-.59-1.56,4.89,4.89,0,0,0-1.05-1.22,6.43,6.43,0,0,0-1.38-.9l.56-1.71-1.94-.63L25.75,173A6.2,6.2,0,0,0,24,173a5,5,0,0,0-1.6.45,4.18,4.18,0,0,0-1.3.93,2.26,2.26,0,0,0-.25.28,3.65,3.65,0,0,0-.57,1.11,3.21,3.21,0,0,0-.15.57,3.38,3.38,0,0,0,0,1.14,4.17,4.17,0,0,0,.54,1.5c.13.22.28.44.43.65s.17.21.26.32.19.22.29.32l.05.06c.41.42.85.84,1.3,1.26l-1.46,4.49-.06.19h0l-.06.18-.3.93a3.33,3.33,0,0,1-.74-.76A2.93,2.93,0,0,1,20,186a2.44,2.44,0,0,1-.1-.24h0s0,0,0-.05,0-.12-.05-.18a4.94,4.94,0,0,1-.16-1,4.78,4.78,0,0,1,.05-1.25l-2-.66a7.29,7.29,0,0,0-.07,1.86.13.13,0,0,0,0,.06.66.66,0,0,0,0,.14s0,0,0,0a.16.16,0,0,1,0,.07l0,.14a.17.17,0,0,0,0,.07,6.33,6.33,0,0,0,.44,1.59c.05.13.12.26.18.38a2,2,0,0,0,.11.21,1.43,1.43,0,0,0,.12.21,5.39,5.39,0,0,0,.56.79,5.3,5.3,0,0,0,1.4,1.18L19.56,192l1.94.63.87-2.67a7.76,7.76,0,0,0,1.82.15,5.48,5.48,0,0,0,1.77-.37,4.33,4.33,0,0,0,1.51-1A4.27,4.27,0,0,0,28.49,187Zm-6.2-10.66a2,2,0,0,1,1-1.19,2.94,2.94,0,0,1,1.84-.24l-1.49,4.58a8.29,8.29,0,0,1-.71-.77,3.48,3.48,0,0,1-.5-.77,2.3,2.3,0,0,1-.23-.79A1.81,1.81,0,0,1,22.29,176.36ZM26,187.28a2.58,2.58,0,0,1-.78.6,3.64,3.64,0,0,1-1,.31,4.17,4.17,0,0,1-1.21-.05L24.65,183a10.94,10.94,0,0,1,.83.84,5.64,5.64,0,0,1,.66.86,3.07,3.07,0,0,1,.37.87,1.58,1.58,0,0,1,0,.86A2.51,2.51,0,0,1,26,187.28Z" transform="translate(10.93)"/><path d="M20.18,196.54a10.19,10.19,0,0,1-1.85-.66,10.94,10.94,0,0,1-5.76-7.56,17,17,0,0,1,8.89-18.65,10.85,10.85,0,0,1,9.44-.23c5.9,2.83,7.87,11,4.39,18.3a16.61,16.61,0,0,1-7.55,7.85A11.09,11.09,0,0,1,20.18,196.54Zm-6-18.95a16,16,0,0,0-1.28,10.66,10.6,10.6,0,0,0,5.6,7.36,10.4,10.4,0,0,0,9.15-.28A16.32,16.32,0,0,0,35,187.61c3.42-7.11,1.51-15.14-4.25-17.91a10.55,10.55,0,0,0-9.18.23,16,16,0,0,0-7.45,7.66Z" transform="translate(10.93)"/><path class="cls-9" d="M23.63,129.28a3.82,3.82,0,0,1-3.81-3.81V12.13A4.93,4.93,0,0,1,24.75,7.2H180.33a4.93,4.93,0,0,1,4.93,4.93V125.47a3.82,3.82,0,0,1-3.81,3.81Z" transform="translate(10.93)"/><path d="M180.33,7.45A4.69,4.69,0,0,1,185,12.13V125.47a3.57,3.57,0,0,1-3.56,3.56H23.63a3.57,3.57,0,0,1-3.56-3.56V12.13a4.69,4.69,0,0,1,4.68-4.68Zm0-.5H24.75a5.18,5.18,0,0,0-5.18,5.18V125.47a4.06,4.06,0,0,0,4.06,4.06H181.45a4.06,4.06,0,0,0,4.06-4.06V12.13A5.18,5.18,0,0,0,180.33,7Z" transform="translate(10.93)"/><path d="M185.51,24.79H19.57V12.13A5.18,5.18,0,0,1,24.75,7H180.33a5.18,5.18,0,0,1,5.18,5.18Z" transform="translate(10.93)"/><path class="cls-6" d="M48.11,15.87a2.74,2.74,0,1,1,2.74,2.74A2.74,2.74,0,0,1,48.11,15.87Z" transform="translate(10.93)"/><path class="cls-12" d="M37.57,15.87a2.74,2.74,0,1,1,2.74,2.74A2.74,2.74,0,0,1,37.57,15.87Z" transform="translate(10.93)"/><path class="cls-9" d="M29.76,18.36a2.49,2.49,0,1,1,2.49-2.49A2.5,2.5,0,0,1,29.76,18.36Z" transform="translate(10.93)"/><path d="M29.76,13.63a2.24,2.24,0,1,1-2.24,2.24,2.24,2.24,0,0,1,2.24-2.24Zm0-.5a2.74,2.74,0,1,0,2.74,2.74,2.74,2.74,0,0,0-2.74-2.74Z" transform="translate(10.93)"/><polygon class="cls-9" points="183.73 17.74 185.67 15.8 183.73 13.87 184.73 12.86 186.67 14.8 188.61 12.86 189.61 13.87 187.68 15.8 189.61 17.74 188.61 18.74 186.67 16.81 184.73 18.74 183.73 17.74"/><path d="M173.81,13.22l1.58,1.58.36.35.35-.35,1.58-1.58.65.65-1.58,1.58-.36.35.36.36,1.58,1.58-.65.65-1.58-1.58-.35-.36-.36.36-1.58,1.58-.65-.65,1.58-1.58.36-.36-.36-.35-1.58-1.58.65-.65Zm3.87-.71-1.93,1.94-1.94-1.94-1.36,1.36,1.94,1.93-1.94,1.94,1.36,1.36,1.94-1.94,1.93,1.94L179,17.74,177.1,15.8,179,13.87l-1.36-1.36Z" transform="translate(10.93)"/><polygon class="cls-12" points="181.11 69.19 183.61 69.17 183.64 64.96 184.55 64.95 184.52 69.17 187.03 69.16 187.01 71.77 184.51 71.78 184.46 79.59 183.55 79.6 183.6 71.79 181.1 71.8 181.11 69.19"/><polygon class="cls-6" points="172.83 64.08 175.34 64.06 175.34 62.58 176.25 62.58 176.25 64.06 178.75 64.05 178.71 70.45 176.21 70.46 176.17 76.32 175.26 76.32 175.3 70.47 172.79 70.48 172.83 64.08"/><polygon class="cls-6" points="164.5 67.59 167.01 67.58 167.02 64.65 167.93 64.65 167.92 67.57 170.42 67.56 170.32 84.88 167.81 84.9 167.78 91.25 166.87 91.26 166.9 84.9 164.4 84.91 164.5 67.59"/><polygon class="cls-12" points="156.1 84.01 158.6 84 158.64 76.81 159.55 76.81 159.51 83.99 162.01 83.98 161.96 93.23 159.46 93.25 159.41 101.75 158.5 101.76 158.55 93.25 156.04 93.26 156.1 84.01"/><polygon class="cls-6" points="147.76 89.71 150.26 89.69 150.28 86.34 151.19 86.33 151.17 89.69 153.67 89.68 153.61 99.5 151.11 99.51 151.06 108.02 150.15 108.02 150.2 99.51 147.7 99.53 147.76 89.71"/><polygon class="cls-6" points="139.43 92.89 141.93 92.88 141.96 88.43 142.87 88.43 142.84 92.88 145.34 92.86 145.31 99.54 142.8 99.55 142.74 110.21 141.83 110.21 141.89 99.56 139.39 99.57 139.43 92.89"/><polygon class="cls-12" points="131.18 83.45 133.68 83.44 133.7 79.81 134.61 79.8 134.59 83.43 137.09 83.42 136.97 103.33 134.47 103.34 134.43 110.83 133.52 110.84 133.56 103.34 131.06 103.36 131.18 83.45"/><polygon class="cls-12" points="122.87 83.41 125.37 83.39 125.42 75.43 126.33 75.43 126.28 83.39 128.78 83.38 128.74 90.76 126.24 90.77 126.22 94.63 125.31 94.64 125.33 90.77 122.83 90.78 122.87 83.41"/><polygon class="cls-12" points="114.52 90.17 117.02 90.16 117.06 84.07 117.97 84.06 117.93 90.15 120.44 90.14 120.39 98.75 117.88 98.76 117.86 103.21 116.95 103.21 116.97 98.76 114.47 98.78 114.52 90.17"/><polygon class="cls-6" points="106.17 89.09 108.67 89.08 108.72 80.3 109.63 80.29 109.58 89.07 112.08 89.06 111.97 108.81 109.47 108.83 109.39 120.96 108.48 120.97 108.56 108.83 106.05 108.84 106.17 89.09"/><polygon class="cls-12" points="97.8 99.2 100.3 99.19 100.33 94.15 101.24 94.15 101.21 99.19 103.72 99.17 103.58 121.61 101.08 121.63 101.05 127.6 100.14 127.6 100.17 121.63 97.67 121.64 97.8 99.2"/><polygon class="cls-6" points="89.51 96.74 92.01 96.73 92.04 91.69 92.95 91.69 92.92 96.72 95.42 96.71 95.36 106.67 92.86 106.68 92.85 108.04 91.94 108.05 91.95 106.68 89.45 106.7 89.51 96.74"/><polygon class="cls-6" points="81.29 83.95 83.8 83.94 83.82 79.84 84.73 79.84 84.71 83.93 87.21 83.92 87.1 102.27 84.6 102.28 84.57 107.44 83.66 107.44 83.69 102.29 81.19 102.3 81.29 83.95"/><polygon class="cls-6" points="73 87.22 75.5 87.2 75.51 85.68 76.42 85.68 76.41 87.2 78.91 87.19 78.86 95.62 76.36 95.63 76.33 100.55 75.42 100.56 75.45 95.64 72.95 95.65 73 87.22"/><polygon class="cls-12" points="64.76 74.82 67.27 74.81 67.29 70.36 68.2 70.35 68.17 74.8 70.68 74.79 70.59 88.92 68.09 88.93 68.06 93.62 67.15 93.62 67.18 88.94 64.68 88.95 64.76 74.82"/><polygon class="cls-12" points="56.52 81.26 59.02 81.25 59.05 77.86 59.95 77.85 59.94 81.25 62.44 81.23 62.35 95.31 59.85 95.32 59.78 107.85 58.87 107.85 58.94 95.33 56.44 95.34 56.52 81.26"/><polygon class="cls-6" points="48.28 69.93 50.78 69.92 50.8 66.64 51.71 66.63 51.69 69.91 54.2 69.9 54.05 94.31 51.55 94.32 51.52 100.37 50.6 100.38 50.64 94.33 48.14 94.34 48.28 69.93"/><polygon class="cls-12" points="39.94 74.83 42.45 74.81 42.48 69.78 43.39 69.78 43.36 74.81 45.86 74.8 45.83 80.46 43.32 80.47 43.3 84.92 42.39 84.93 42.41 80.48 39.91 80.49 39.94 74.83"/><path class="cls-6" d="M164.66,155.62a5.12,5.12,0,0,0,2.92-1,24.81,24.81,0,0,1-.43,5.37c-1.15,1.86-4.34,5.27-4.13,5.25a10.57,10.57,0,0,0,2.57-.6,19,19,0,0,1-2,3.19c-1.54,2.06-3.75,3.72-4.59,6.23a.13.13,0,0,1-.09.11.19.19,0,0,1-.31.14c-4.16-4-4.9-10-5.51-15.38l-.09-.76a17,17,0,0,0,3.84,3c.2.11-2.61-4.38-4-6.45a12.25,12.25,0,0,1,.72-3.85,32.19,32.19,0,0,1,4.26-7.3l.21-.28a12.28,12.28,0,0,0,1.79,3.25,39.58,39.58,0,0,0-.56-4.87c.41-.5.81-1,1.24-1.5.55-.65,1.24-1.76,2.24-1.61s3.17,4.1,3.45,5.23c.12.48.23,1,.32,1.47.05.22.09.43.13.65a58.72,58.72,0,0,1,.74,6l-.21.32C166.42,153.39,164.46,155.62,164.66,155.62Z" transform="translate(10.93)"/><path d="M160.86,153.63c2.06-.31,3.63-1.61,5.14-2.95.22-.2-.06-.58-.29-.38a10,10,0,0,1-4.8,2.84c.44-3.06,1-6.11,1.55-9.14.06-.3-.41-.37-.47-.08q-1.19,6-2,12.13a20.24,20.24,0,0,1-2.71-5.47c-.1-.28-.53-.11-.44.18a20.5,20.5,0,0,0,2.92,5.77.19.19,0,0,0,.17.09c-.11.89-.21,1.78-.31,2.67a12.86,12.86,0,0,1-2-3.53.24.24,0,0,0-.44.18,13.27,13.27,0,0,0,2.29,3.91.2.2,0,0,0,.1.07q-.45,4.4-.68,8.8a.2.2,0,0,0,0,.11c-.06,1.07-.1,2.15-.11,3.22,0,.7,0,1.41-.06,2.11a.22.22,0,0,0,.07.16A102.71,102.71,0,0,0,161.29,194l.46-.1a97.58,97.58,0,0,1-2.48-22.26c0-.8.06-1.59.1-2.38a.24.24,0,0,0,.21,0,8,8,0,0,0,2.15-2.2c.16-.25-.2-.55-.37-.29a7.36,7.36,0,0,1-2,2q.39-7.59,1.45-15.13Z" transform="translate(10.93)"/><path class="cls-6" d="M144.53,167.24a5.08,5.08,0,0,1-2.77.24,18.16,18.16,0,0,0,1.93,3.9c1.52,1,5.22,2.53,5,2.58a10.61,10.61,0,0,1-2.35.4,15.48,15.48,0,0,0,2.59,1.75c1.91,1,4.27,1.56,5.71,3.18a.15.15,0,0,0,.12.05.16.16,0,0,0,.29,0c2.39-4.34,1.28-9.1.23-13.37-.05-.2-.1-.4-.16-.6a15,15,0,0,1-2.39,3.51c-.14.15.94-4.15,1.51-6.16a8.72,8.72,0,0,0-1.73-2.65,25.35,25.35,0,0,0-5.75-4.09l-.25-.13a10,10,0,0,1-.58,3A28,28,0,0,1,145,155c-.49-.24-1-.49-1.49-.72-.66-.31-1.56-.91-2.37-.48s-1.5,4.13-1.41,5.07c0,.4.09.81.15,1.22,0,.17,0,.35.08.52a44.87,44.87,0,0,0,1.12,4.78l.28.16C142.38,166.14,144.7,167.18,144.53,167.24Z" transform="translate(10.93)"/><path d="M158.54,195a73.81,73.81,0,0,0-3.6-15.6.12.12,0,0,0,0-.14q-.31-.78-.66-1.56c-.32-.8-.66-1.6-1-2.39a.15.15,0,0,0,0-.06q-1.49-3.24-3.14-6.39s.05,0,.06-.09a10.21,10.21,0,0,0,.81-3.69c0-.25-.41-.24-.42,0a9.9,9.9,0,0,1-.69,3.32c-.34-.64-.68-1.28-1-1.91a.2.2,0,0,0,.12-.13,15.78,15.78,0,0,0,.8-5.29c0-.25-.43-.24-.42,0a15.62,15.62,0,0,1-.73,5q-2.41-4.32-5.18-8.47c-.13-.2-.51,0-.37.21q2.08,3.12,4,6.36a9.45,9.45,0,0,1-4.9-.56c-.26-.07-.38.31-.13.38a9.72,9.72,0,0,0,5.22.53h0a122,122,0,0,1,5.63,10.9,6.56,6.56,0,0,1-2.26-.89.21.21,0,0,0-.23.34,6.73,6.73,0,0,0,2.47.95.22.22,0,0,0,.18,0c.27.58.52,1.16.78,1.75A70.22,70.22,0,0,1,158.12,195Z" transform="translate(10.93)"/><path d="M143.56,161.55a11,11,0,0,1-3.66-1.43c0,.17,0,.35.08.52a11.32,11.32,0,0,0,3.45,1.28C143.69,162,143.82,161.6,143.56,161.55Z" transform="translate(10.93)"/><path class="cls-6" d="M183.28,165.07c0,1.7-3.95,2.52-5.19,3-2.75,1-5.44,2-7.48,4.26a90.18,90.18,0,0,0-6.54,8.51.51.51,0,0,1-.49.21,8.54,8.54,0,0,1-.57-1.24c-.71-1.76-1.81-5-1.54-6.81a11.51,11.51,0,0,1,1.25-3.66,3.28,3.28,0,0,0,.79,1.55,31.74,31.74,0,0,0,.45-3.41c.18-.23.36-.44.56-.65a11.44,11.44,0,0,1,1.45-1.33l.33-.26a15.13,15.13,0,0,1,1.32-.88l.37-.21c.42-.23.86-.45,1.31-.65a9.32,9.32,0,0,0,.73,2.41,15.3,15.3,0,0,0,.29-2.82c.43-.16.86-.29,1.3-.42a7.21,7.21,0,0,0,.54,1.56,8.16,8.16,0,0,0,.85-1.9,17.16,17.16,0,0,1,4.2-.32l.36,0c.37,0,.75.07,1.11.12,1.35.21,4.53,1.07,4.59,2.89A.11.11,0,0,1,183.28,165.07Z" transform="translate(10.93)"/><path d="M168.2,169.53c-3.33,3.28-4.36,9.31-4.57,11a7.74,7.74,0,0,0-.69,2.23,48.82,48.82,0,0,0-.21,8.29c0,.9.06,1.8.11,2.69l.46-.08c0-.57-.06-1.13-.08-1.7-.08-2.44-.08-4.89,0-7.33a10.53,10.53,0,0,1,.66-3.7.66.66,0,0,0,.15-.14,90.18,90.18,0,0,1,6.54-8.51c2-2.21,4.73-3.24,7.48-4.26,1.24-.46,5.16-1.28,5.19-3C178.05,165.68,172,165.74,168.2,169.53Z" transform="translate(10.93)"/><path d="M168.06,167.91a10.91,10.91,0,0,1-.07-3.78l-.37.21a11.19,11.19,0,0,0,.1,3.65A.17.17,0,0,0,168.06,167.91Z" transform="translate(10.93)"/><path d="M166.79,168.59a14.29,14.29,0,0,1-.49-3.37l-.33.26a14.39,14.39,0,0,0,.48,3.19A.18.18,0,0,0,166.79,168.59Z" transform="translate(10.93)"/><path class="cls-9" d="M153,200.87a12,12,0,0,1-4.62-7.14,12.36,12.36,0,0,1-.26-2.51,12,12,0,0,1,.29-2.61,12.35,12.35,0,0,1,.59-1.91h22.18a12.46,12.46,0,0,1,.6,1.91,12,12,0,0,1,.28,2.61,11.69,11.69,0,0,1-.26,2.51,12,12,0,0,1-4.62,7.14Z" transform="translate(10.93)"/><path d="M171.05,187a11,11,0,0,1,.52,1.72,11.45,11.45,0,0,1,.28,2.55,11.61,11.61,0,0,1-4.71,9.4h-14a11.7,11.7,0,0,1-4.46-6.94,11.88,11.88,0,0,1-.26-2.46,11.61,11.61,0,0,1,.28-2.56,12,12,0,0,1,.52-1.71Zm.34-.5H148.88a11.55,11.55,0,0,0-.68,2.11,12.25,12.25,0,0,0-.29,2.66,12,12,0,0,0,.27,2.56,12.23,12.23,0,0,0,4.78,7.34H167.3a12.29,12.29,0,0,0,4.79-7.34,12.63,12.63,0,0,0,.26-2.56,12.31,12.31,0,0,0-1-4.77Z" transform="translate(10.93)"/><path d="M172.35,191.22a12.63,12.63,0,0,1-.26,2.56,12.29,12.29,0,0,1-4.79,7.34H153c18.74.93,18.43-14.67,18.43-14.67a12.31,12.31,0,0,1,1,4.77Z" transform="translate(10.93)"/><rect x="52.43" y="35.55" width="38.93" height="18.13" rx="2.9"/><rect class="cls-6" x="50.2" y="35.55" width="38.93" height="18.13" rx="2.9"/><path class="cls-9" d="M46.49,39.93h3.89A12,12,0,0,1,52.1,40a2.4,2.4,0,0,1,1.76,1.22,2.15,2.15,0,0,1,.3,1.13,2.29,2.29,0,0,1-1.37,2.11,2.56,2.56,0,0,1,1.37.88,2.36,2.36,0,0,1,.48,1.47,3,3,0,0,1-.31,1.29,2.66,2.66,0,0,1-.84,1,2.84,2.84,0,0,1-1.32.46c-.33,0-1.12.06-2.37.07H46.49Zm2,1.61v2.25h1.28c.77,0,1.24,0,1.43,0a1.32,1.32,0,0,0,.79-.35,1.16,1.16,0,0,0,0-1.49,1.1,1.1,0,0,0-.74-.34c-.19,0-.75,0-1.68,0Zm0,3.87V48h1.81A8.87,8.87,0,0,0,51.62,48a1.17,1.17,0,0,0,.71-.39,1.15,1.15,0,0,0,.28-.82A1.3,1.3,0,0,0,52.4,46a1.24,1.24,0,0,0-.62-.44A6.81,6.81,0,0,0,50,45.41Z" transform="translate(10.93)"/><path class="cls-9" d="M56.28,39.93h2v5.26a10.46,10.46,0,0,0,.08,1.63,1.54,1.54,0,0,0,.6,1,2.08,2.08,0,0,0,1.29.36,2,2,0,0,0,1.26-.34A1.25,1.25,0,0,0,62,47a10.44,10.44,0,0,0,.09-1.65V39.93h2V45a12.89,12.89,0,0,1-.16,2.48,2.77,2.77,0,0,1-.58,1.22,3.06,3.06,0,0,1-1.15.79,5.09,5.09,0,0,1-1.87.29,5.27,5.27,0,0,1-2.11-.32A3,3,0,0,1,57,48.66a2.92,2.92,0,0,1-.55-1.08,12.48,12.48,0,0,1-.19-2.47Z" transform="translate(10.93)"/><path class="cls-9" d="M68.66,49.65V45.56l-3.57-5.63H67.4l2.28,3.84,2.24-3.84h2.27l-3.58,5.64v4.08Z" transform="translate(10.93)"/><rect x="140.04" y="34.02" width="45.51" height="21.2" rx="3.39"/><rect class="cls-12" x="137.45" y="34.02" width="45.51" height="21.2" rx="3.39"/><path class="cls-9" d="M132.77,46.79l2-.2a2.48,2.48,0,0,0,.74,1.5,2.22,2.22,0,0,0,1.52.49,2.35,2.35,0,0,0,1.52-.43,1.3,1.3,0,0,0,.52-1,1,1,0,0,0-.22-.63,1.72,1.72,0,0,0-.75-.45q-.37-.12-1.68-.45a5.77,5.77,0,0,1-2.36-1,2.72,2.72,0,0,1-.95-2.09A2.65,2.65,0,0,1,133.6,41,2.82,2.82,0,0,1,134.89,40a5.17,5.17,0,0,1,2-.36,4.39,4.39,0,0,1,2.94.86,3,3,0,0,1,1,2.28l-2.09.09a1.78,1.78,0,0,0-.58-1.15,2.1,2.1,0,0,0-1.32-.35,2.38,2.38,0,0,0-1.43.38.75.75,0,0,0-.33.64.78.78,0,0,0,.31.63,5.47,5.47,0,0,0,1.92.69,10,10,0,0,1,2.26.75,2.83,2.83,0,0,1,1.14,1.05,3.23,3.23,0,0,1-.08,3.32A2.9,2.9,0,0,1,139.3,50a5.69,5.69,0,0,1-2.25.38,4.47,4.47,0,0,1-3-.91A3.94,3.94,0,0,1,132.77,46.79Z" transform="translate(10.93)"/><path class="cls-9" d="M143,50.16V39.8h7.68v1.75h-5.59v2.3h5.2v1.74h-5.2v2.82h5.79v1.75Z" transform="translate(10.93)"/><path class="cls-9" d="M152.67,50.16V39.88h2.09v8.53H160v1.75Z" transform="translate(10.93)"/><path class="cls-9" d="M161.51,50.16V39.88h2.09v8.53h5.2v1.75Z" transform="translate(10.93)"/><path class="cls-9" d="M91.41,88.42c-11.73,1.64-6.84-34.49-6.84-34.49l3.91-.11c.4.31,1.41,9.43,3.48,14.9C93.8,73.58,97.92,87.52,91.41,88.42Z" transform="translate(10.93)"/><path d="M90.66,88.72a4.7,4.7,0,0,1-3.42-1.45C80.77,80.83,84.18,55,84.33,53.89l0-.2,4.2-.11.07.05c.2.16.32.73.78,3.33a71.8,71.8,0,0,0,2.78,11.67c1.86,4.91,4.38,14.25,2,18.18a3.7,3.7,0,0,1-2.8,1.85A5.32,5.32,0,0,1,90.66,88.72Zm.71-.53,0,.23,0-.23a3.24,3.24,0,0,0,2.46-1.63c2.23-3.77-.27-12.93-2.09-17.75A72.77,72.77,0,0,1,88.93,57c-.23-1.33-.46-2.61-.59-3l-3.56.09c-.31,2.49-3.2,26.79,2.8,32.77A4.31,4.31,0,0,0,91.37,88.19Z" transform="translate(10.93)"/><path class="cls-9" d="M85.33,55.19A3.59,3.59,0,0,1,83,54.25a2.12,2.12,0,0,1-1.2-2.16.84.84,0,0,1,.15-.3,1.52,1.52,0,0,1-.3-1.39.67.67,0,0,1,.23-.31,1.7,1.7,0,0,1,.08-1.29,1,1,0,0,1,.61-.56,9.21,9.21,0,0,0-2.13-1.13,1,1,0,0,1-.75-.93.78.78,0,0,1,.64-.72,1.39,1.39,0,0,1,.3,0,8,8,0,0,1,3.1,1.15,10.07,10.07,0,0,1,3.15,2.58.88.88,0,0,1,.09-.38.86.86,0,0,1,.74-.5.74.74,0,0,1,.48.18,2.34,2.34,0,0,1,1.11,1.78,19.18,19.18,0,0,1-.78,3.88.4.4,0,0,1-.37.22h0a1.39,1.39,0,0,1-.65-.26,2.73,2.73,0,0,1-2.11,1.11Z" transform="translate(10.93)"/><path d="M80.58,45.68a8.84,8.84,0,0,1,3,1.12,8.61,8.61,0,0,1,3.76,3.65,4.15,4.15,0,0,1,.32-.27,3.89,3.89,0,0,0-.44-.65.63.63,0,0,1,.45-1,.56.56,0,0,1,.33.12,2.16,2.16,0,0,1,1,1.59A20.28,20.28,0,0,1,88.25,54a.16.16,0,0,1-.15.09,1.67,1.67,0,0,1-.71-.35,2.58,2.58,0,0,1-2,1.2h0A3.32,3.32,0,0,1,83.1,54c-1.47-.89-1.24-2.16-.85-2.16a.15.15,0,0,1,.09,0c-.75-.67-.66-1.67-.18-1.67h0c-.43-.59-.15-1.79.61-1.79a1,1,0,0,1,.55.18,8.49,8.49,0,0,0-2.88-1.76c-.73-.24-.78-1-.13-1.16a.88.88,0,0,1,.24,0Zm0-.5h0a1.37,1.37,0,0,0-.36,0,1,1,0,0,0-.83,1,1.26,1.26,0,0,0,.92,1.18,8.8,8.8,0,0,1,1.74.87,1.46,1.46,0,0,0-.37.47A2,2,0,0,0,81.54,50a1.11,1.11,0,0,0-.17.3,1.74,1.74,0,0,0,.23,1.49.73.73,0,0,0-.09.22,2.31,2.31,0,0,0,1.33,2.45,3.78,3.78,0,0,0,2.49,1,2.92,2.92,0,0,0,2.17-1,1.28,1.28,0,0,0,.6.19.66.66,0,0,0,.59-.35,19.41,19.41,0,0,0,.81-4,2.63,2.63,0,0,0-1.2-2,1,1,0,0,0-.64-.23,1.08,1.08,0,0,0-.94.6,10.69,10.69,0,0,0-2.92-2.27,8,8,0,0,0-3.22-1.18Z" transform="translate(10.93)"/><path class="cls-9" d="M84.17,54.7s.61.16.39,1.17,3,1.14,3.14.57a11.58,11.58,0,0,1,.75-1.88,9.14,9.14,0,0,1,.12-1.64c.13-.7-3-1.45-3.8-.31A3,3,0,0,0,84.17,54.7Z" transform="translate(10.93)"/><path class="cls-9" d="M112,52.31v3.52s-.92,2,0,2.14a5.32,5.32,0,0,0,4.86-2.23l0-5.43Z" transform="translate(10.93)"/><path d="M112.68,58.25a5.53,5.53,0,0,1-.69,0,.63.63,0,0,1-.5-.34c-.33-.58.15-1.76.3-2.09V52.14L117.14,50l0,5.86,0,.06A5.64,5.64,0,0,1,112.68,58.25Zm-.4-5.78,0,3.46c-.24.53-.51,1.41-.34,1.71a.15.15,0,0,0,.14.09,5.09,5.09,0,0,0,4.59-2.07l0-5Z" transform="translate(10.93)"/><path class="cls-9" d="M110.88,42.49A24,24,0,0,0,108.93,49c-.33,2.4,3.75,6.11,7.33,2.75s2.62-8.54,2.62-8.54Z" transform="translate(10.93)"/><path d="M113.17,53.29a4.38,4.38,0,0,1-2-.5c-1.58-.82-2.68-2.52-2.49-3.87a24.7,24.7,0,0,1,2-6.53l.08-.15,8.34.7,0,.18c0,.05,1,5.34-2.68,8.76A4.78,4.78,0,0,1,113.17,53.29ZM111,42.75A24.07,24.07,0,0,0,109.17,49a3.79,3.79,0,0,0,2.23,3.38,3.89,3.89,0,0,0,4.7-.84c3.08-2.89,2.69-7.2,2.57-8.13Z" transform="translate(10.93)"/><path d="M119.77,47s0-.16.1-.32a2.47,2.47,0,0,0-.49-2.52.66.66,0,0,0-.89-.08h0c-1-.08-6.35.83-6.49,1.51-.24,1.14-1.11,3.7-.13,4.45,2.28,1.76,5.79,1.14,6.61.9,1-.28,1-1.49,1.29-2.24a1.71,1.71,0,0,0,.22-1.27A1.75,1.75,0,0,0,119.77,47Z" transform="translate(10.93)"/><path d="M111.88,40.85c-.84-.53-1.89-.91-2.65,0-1,1.13,0,2.43.91,3.2a.57.57,0,0,0,.89-.2c1.1.6.26,1.52,1.28,2,1.51.73,5.74,1.85,6.83-.51C121,41.35,114.75,38.7,111.88,40.85Z" transform="translate(10.93)"/><path class="cls-9" d="M133.73,190.44c.49-.61,5-.12,5.05.19.16,1,.41,4.68-.09,5.17s-4.45,2-4.55,1.08S133.26,191,133.73,190.44Z" transform="translate(10.93)"/><path d="M134.7,197.41a1.27,1.27,0,0,1-.42,0,.53.53,0,0,1-.38-.45c0-.14-.05-.39-.09-.71-.53-3.9-.6-5.5-.27-5.91h0c.55-.7,4.1-.28,4.94-.06.31.08.51.17.54.36.06.38.53,4.71-.16,5.38A10,10,0,0,1,134.7,197.41Zm-.78-6.82c-.22.28-.09,2.15.37,5.54,0,.33.08.59.09.72s0,0,.06.05c.74.28,3.72-.92,4.08-1.27s.24-3.52,0-4.87c-.63-.3-4.32-.56-4.63-.17Z" transform="translate(10.93)"/><path d="M139.32,193.12l-6.22.67c-3.24-10.73-11.92-29.06-13.19-40.31-2-17.48-4.37-36.2-4.48-40.8,0-.74,0-1.13,0-1.13,4.28-5.21,11.53-7.33,14.76-7.72,1.28-.15,2.21.1,2.61.77a49,49,0,0,1,3.14,6.12c5.21,12.38.82,19.85.92,35.95,0,.93,0,1.88,0,2.82.17,6.66-1.63,14.85.29,21.8C140.91,184.92,139.32,193.12,139.32,193.12Z" transform="translate(10.93)"/><path d="M125.93,174.26c-2.8-7.47-5.37-15-6-20.78-1.39-12.3-3-25.2-3.85-33.37l5.3-1a68.3,68.3,0,0,1-.37,12.07c-.8,7.46,3.13,38.31,4.93,43.06Z" transform="translate(10.93)"/><path d="M139.06,194.67s2.43,3.48.69,6.21c0,0-12.66.59-16.49,0,0,0-.1-4.67,3.18-5.07s7.48-.57,7.48-.57A3.86,3.86,0,0,0,139.06,194.67Z" transform="translate(10.93)"/><path class="cls-9" d="M105.54,190.42c.48-.61,5.74-.1,5.8.21.16,1,.41,4.68-.09,5.17s-5,1.51-5.14.57S105.07,191,105.54,190.42Z" transform="translate(10.93)"/><path d="M107.14,197a2.65,2.65,0,0,1-.82-.1.6.6,0,0,1-.45-.49c0-.19-.08-.56-.16-1-.51-3-.72-4.64-.36-5.09h0c.56-.7,4.78-.26,5.74,0,.23.06.45.13.49.33.1.64.48,4.75-.16,5.38A9.86,9.86,0,0,1,107.14,197Zm-1.41-6.42c-.3.38.25,3.52.45,4.7.09.5.15.89.17,1.08a.24.24,0,0,0,.14.08c1,.35,4.24-.47,4.59-.8s.24-3.51,0-4.87C110.4,190.45,106.11,190.17,105.73,190.57Z" transform="translate(10.93)"/><path d="M111.62,194.67s2.43,3.48.69,6.21c0,0-12.67.59-16.49,0,0,0-.1-4.67,3.18-5.07a59.28,59.28,0,0,1,7-.34S109.24,197.25,111.62,194.67Z" transform="translate(10.93)"/><path d="M112.35,151.27a162.15,162.15,0,0,0-.33,24c0,.5,0,17.81,0,17.81l-7,.67C101.25,182.41,94,156.9,94,145.58s1-30.2,5.14-39.15c4-8.51,19.7,3.14,21.41,5.33,2.64,3.39,1.58,14-1.94,19.09C114.51,136.68,112.67,147.26,112.35,151.27Z" transform="translate(10.93)"/><path d="M121.09,124.33s.27-.37.36,0,4.86-.47,4.86-.47l4.83-5.68-.62-7.9H116.06l-2,7.06,3.77,5.46Z" transform="translate(10.93)"/><path d="M94,145.58c0-11.33,1-30.2,5.14-39.15,3.1-6.66,13.41-1,18.57,2.86a26,26,0,0,1,12.5-5.46c1.28-.15,2.21.1,2.61.77a49,49,0,0,1,3.14,6.12c.28.68.53,1.33.76,2,0,0-14.12,5.28-28.44,2.4S95.37,158,97,165.06C95.23,157.47,94,150.29,94,145.58Z" transform="translate(10.93)"/><path class="cls-9" d="M117.36,98.88a.46.46,0,0,1-.22-.07c0-.1.28-.45.43-.63.3-.37.59-.72.52-1.05a.5.5,0,0,0-.28-.34l0,0h-.09c-.18,0-.43.15-1,.49a5.73,5.73,0,0,1-1.79.84c-.07,0-.13-.09,0-.44a3.63,3.63,0,0,1,.53-.7c.55-.64.85-1,.71-1.32a.39.39,0,0,0-.4-.22h-.07l-.11,0-.51.33a5,5,0,0,1-1.94,1,.28.28,0,0,1-.28-.14,2.78,2.78,0,0,1,1.12-1.31c1.61-1,1.56-1.2,1.51-1.37l0-.18-.26,0a5.58,5.58,0,0,0-2.06,1,1.17,1.17,0,0,1-.6.25c-.07,0-.12,0-.14-.05s0-.28.18-.65c1-1.73,3.5-2.35,5.48-2.35a8.57,8.57,0,0,1,.9.05,6.38,6.38,0,0,1,3.19,2.34,1.53,1.53,0,0,1,.26,1.34c-.15.4-.37.43-.78.5a2.64,2.64,0,0,0-.71.18,5.86,5.86,0,0,0-1.3,1c-.69.65-1.55,1.46-2.1,1.46Z" transform="translate(10.93)"/><path d="M118,92.21a6.08,6.08,0,0,1,.87.05,6.13,6.13,0,0,1,3,2.22,1.3,1.3,0,0,1,.23,1.12c-.09.25-.15.27-.58.34a3.38,3.38,0,0,0-.77.2,6,6,0,0,0-1.37,1.1,6.4,6.4,0,0,1-1.81,1.37l.22-.27c.34-.42.67-.81.57-1.26a.72.72,0,0,0-.41-.51l-.13-.06h-.12c-.24,0-.48.14-1.12.52a8.44,8.44,0,0,1-1.48.78s0,0,0-.08a5.64,5.64,0,0,1,.48-.62c.56-.65,1-1.12.75-1.59a.65.65,0,0,0-.63-.36h-.2l-.11.06c-.15.1-.33.21-.52.35a5.35,5.35,0,0,1-1.8.93,3.34,3.34,0,0,1,1-1c1.51-.94,1.74-1.25,1.62-1.65a.54.54,0,0,0-.55-.39,5.7,5.7,0,0,0-2.21,1.08,1.61,1.61,0,0,1-.33.18,1.22,1.22,0,0,1,.14-.3c1-1.65,3.44-2.23,5.26-2.23Zm0-.5c-2.07,0-4.63.68-5.69,2.47-.41.68-.24,1.08.17,1.08a1.35,1.35,0,0,0,.74-.29,5.67,5.67,0,0,1,1.92-1c.23,0-.07.33-1.33,1.12-.53.32-1.45,1.26-1.2,1.65a.54.54,0,0,0,.49.26c.74,0,1.93-1,2.58-1.35h0c.74,0-1,1.48-1.08,1.92s0,.76.28.76c.75,0,2.48-1.33,2.78-1.33h0c.78.39-1.78,1.89-.38,2.1h.1c1.06,0,2.71-2.19,3.5-2.53s1.34,0,1.62-.83c.64-1.79-2.74-3.91-3.65-4a9.16,9.16,0,0,0-.93-.05Z" transform="translate(10.93)"/><path class="cls-9" d="M118.54,92a1.32,1.32,0,0,1-.38,0,2.85,2.85,0,0,1-.53-.22,3.33,3.33,0,0,0-.48-.21,2.71,2.71,0,0,1-1-.58c-.09-.1-.1-.17-.09-.19s.21-.15.47-.15a6.48,6.48,0,0,1,2.64,1.35A6.08,6.08,0,0,1,118.54,92Z" transform="translate(10.93)"/><path d="M116.51,90.84h0a4.4,4.4,0,0,1,1.82.88l-.15,0a3.54,3.54,0,0,1-.48-.2,4,4,0,0,0-.51-.23,2.53,2.53,0,0,1-.83-.42Zm0-.5c-.47,0-1,.25-.57.75a2.62,2.62,0,0,0,1.13.65c.34.12.68.35,1,.45a2.56,2.56,0,0,0,.45,0,4.06,4.06,0,0,0,1.24-.13c-.68-.5-2.34-1.71-3.21-1.75Z" transform="translate(10.93)"/><path class="cls-9" d="M118.57,91.89l2.27,4.24s.86.13,2.29.26c4.2.35,15.71-.93,21.48-4,3.47-1.83,4.44-5.22,4.14-9.26a21.9,21.9,0,0,0-3.46-10.06,32.37,32.37,0,0,0-2.64-3.64,13.79,13.79,0,0,0-2-1.85l-.7-.52h0l-.09-.07a73,73,0,0,0-15-8.61,4.38,4.38,0,0,0-6.18,3.51A14.55,14.55,0,0,0,120,69.47a14,14,0,0,0,6.66,6.66c1.06.52,2.27,1.14,3.45,1.79.16.08.3.15.45.24,3,1.65,4.68,7,4.91,8,.29,1.07-.58,2-2.06,2.7C128.9,91.09,118.57,91.89,118.57,91.89Z" transform="translate(10.93)"/><path d="M124.68,96.68c-.6,0-1.13,0-1.57-.05-1.42-.13-2.3-.26-2.31-.26l-.12,0-2.5-4.67.37,0c.1,0,10.34-.83,14.79-3.06,1.52-.75,2.17-1.56,1.94-2.42,0-.06-1.68-6.07-4.8-7.8l-.34-.19-.1-.05c-1-.58-2.25-1.19-3.45-1.78a14.36,14.36,0,0,1-6.77-6.78,14.75,14.75,0,0,1-1.35-7.67,4.46,4.46,0,0,1,2.24-3.49,4.69,4.69,0,0,1,4.28-.22,73.28,73.28,0,0,1,15,8.63l.12.09c.23.16.47.33.7.51a14.8,14.8,0,0,1,2,1.88A30.05,30.05,0,0,1,145.49,73,22.17,22.17,0,0,1,149,83.14c.35,4.68-1,7.79-4.27,9.49C139.53,95.37,129.69,96.68,124.68,96.68ZM121,95.91c.29,0,1.05.14,2.16.24,4.1.35,15.61-.92,21.35-4,3-1.6,4.35-4.55,4-9a21.62,21.62,0,0,0-3.43-10,29.15,29.15,0,0,0-2.61-3.61,14.41,14.41,0,0,0-1.93-1.82l-.7-.51-.13-.09a72.89,72.89,0,0,0-14.92-8.57,4.2,4.2,0,0,0-3.84.2,4,4,0,0,0-2,3.11,14.25,14.25,0,0,0,1.31,7.43,13.9,13.9,0,0,0,6.54,6.55c1.21.59,2.41,1.21,3.47,1.79l.09,0,.36.2c3.29,1.83,5,8,5,8.09.29,1.12-.45,2.12-2.19,3-4.11,2-12.69,2.91-14.6,3.07Z" transform="translate(10.93)"/><path class="cls-12" d="M131.09,80.05c-1.23-.68-9-5.09-11.51-10.84-1.15-2.61-5.44-10.5-2.25-12.18,5.11-2.7,17.86,4.35,24.45,9C140.85,71.82,136.76,76.79,131.09,80.05Z" transform="translate(10.93)"/><path d="M131.6,72.42a42,42,0,0,1,3.85,4.51s-1.54,1.23-3.1,2.43-2-5.84-2-5.84Z" transform="translate(10.93)"/><path class="cls-12" d="M99,75.82a68.33,68.33,0,0,1,1.3,8.13c.24,6-4.26,19.9-3.39,24.14.8,1,12.27,5.8,20.91,6.11,11.25.41,20.49-2.49,20.6-4.14s-5.08-18.14-5.73-26.92c-.71-9.75-2.72-19.55-4.51-22.77a5.08,5.08,0,0,0-.42-.64,7.86,7.86,0,0,0-3-2.07c-7.53-3.44-20.7-3.25-26.68-.34C95.89,61.06,97.59,68.79,99,75.82Z" transform="translate(10.93)"/><path d="M99.89,88.44S107.57,83,108.11,76c1.81-23.62-9.59-2.31-9.59-2.31l.86,4.49C100,81.88,100.7,84.47,99.89,88.44Z" transform="translate(10.93)"/><path class="cls-9" d="M91.52,88.48c3.59-.85,5.24-2.46,7.72-4.84.26-.25.52-.5.75-.76.4-.43.77-.85,1.12-1.27.47-.6.89-1.19,1.27-1.76.06-.11.13-.2.18-.29,1.64-2.57,2.3-4.16,2.44-6.34a17,17,0,0,0-.12-3.74s-.78-12.32-4.54-10.21-5,3.8-8.08,10.28c0,0,0,0,0,.08-.19.35-.34.69-.5,1a3.15,3.15,0,0,1-.3.61C85,79,86.38,89.68,91.52,88.48Z" transform="translate(10.93)"/><path d="M90.75,88.81A3.23,3.23,0,0,1,88,87.12c-2.06-3.33-1.24-10.55,3.28-16a1.42,1.42,0,0,0,.18-.35l.09-.21.14-.31c.12-.24.23-.48.36-.72l0-.07c3-6.33,4.23-8.17,8.18-10.39a1.69,1.69,0,0,1,1.72-.08c2.58,1.41,3.15,10.11,3.18,10.48a17,17,0,0,1,.12,3.78c-.14,2.13-.76,3.75-2.47,6.45l-.07.1-.11.17c-.37.58-.79,1.16-1.29,1.8-.36.43-.73.85-1.13,1.29-.24.25-.5.51-.77.76l-.05,0c-2.49,2.41-4.14,4-7.77,4.85h0A3.54,3.54,0,0,1,90.75,88.81Zm1.48-19.2.22.1c-.14.27-.25.51-.36.74l-.15.31c0,.06,0,.12-.08.19a1.53,1.53,0,0,1-.25.47c-4.38,5.29-5.21,12.26-3.24,15.44a2.72,2.72,0,0,0,3.09,1.38h0c3.51-.82,5.12-2.38,7.56-4.73l0-.05c.26-.24.52-.49.75-.74.39-.43.76-.85,1.11-1.27.48-.62.89-1.19,1.25-1.73a1,1,0,0,1,.12-.19l.06-.1c1.68-2.65,2.27-4.16,2.39-6.22a16.55,16.55,0,0,0-.11-3.69c0-.12-.59-8.84-2.93-10.11a1.23,1.23,0,0,0-1.26.07c-3.84,2.16-4.94,3.86-8,10.17Z" transform="translate(10.93)"/><path class="cls-12" d="M108.32,62.2a14.63,14.63,0,0,1,.06,4.89s-3.26,12.17-4.28,14.21A15.24,15.24,0,0,1,91.3,69c2.37-6.43,3.08-8.63,6.37-11.37C99.69,55.91,107.65,56.88,108.32,62.2Z" transform="translate(10.93)"/><path class="cls-9" d="M87.9,74.51l1.59,1.75,1.81,12a4.74,4.74,0,0,1-4.25-2C85.25,84,87.9,74.51,87.9,74.51Z" transform="translate(10.93)"/></g></g></svg>